{"glyphs":{"0":{"ha":874,"x_min":0,"x_max":0,"o":"m 436 -17 b 53 486 197 -17 53 188 b 436 989 53 785 197 989 b 819 486 675 989 819 785 b 436 -17 819 188 675 -17 m 436 150 b 626 486 560 150 626 279 b 436 822 626 693 560 822 b 246 486 311 822 246 693 b 436 150 246 279 311 150 "},"1":{"ha":499,"x_min":0,"x_max":0,"o":"m 231 760 b 17 658 167 708 99 675 l 17 829 b 263 972 103 850 192 903 l 407 972 l 407 0 l 231 0 "},"2":{"ha":771,"x_min":0,"x_max":0,"o":"m 43 156 l 372 446 b 515 679 472 533 515 607 b 376 822 515 765 460 822 b 229 611 276 822 218 738 l 47 624 b 376 989 28 831 178 989 b 710 679 575 989 710 863 b 485 318 710 557 639 446 l 311 167 l 715 167 l 715 0 l 43 0 "},"3":{"ha":796,"x_min":0,"x_max":0,"o":"m 385 -17 b 32 275 190 -17 50 103 l 206 304 b 386 150 219 214 290 150 b 551 315 483 150 551 219 b 390 474 551 413 489 474 b 283 442 357 474 314 463 l 210 567 l 458 806 l 58 806 l 58 972 l 683 972 l 683 817 l 449 597 b 743 310 622 604 743 493 b 385 -17 743 117 600 -17 "},"4":{"ha":840,"x_min":0,"x_max":0,"o":"m 493 201 l 25 201 l 25 367 l 479 972 l 686 972 l 686 367 l 803 367 l 803 201 l 686 201 l 686 0 l 493 0 m 493 367 l 493 742 l 222 367 "},"5":{"ha":778,"x_min":0,"x_max":0,"o":"m 386 -17 b 39 257 203 -17 65 93 l 213 289 b 381 150 231 206 293 150 b 536 326 475 150 536 224 b 369 496 536 431 472 496 b 200 399 297 496 243 463 l 61 429 l 139 972 l 658 972 l 658 806 l 279 806 l 246 578 b 418 647 288 619 354 647 b 729 326 603 647 729 517 b 386 -17 729 122 594 -17 "},"6":{"ha":832,"x_min":0,"x_max":0,"o":"m 465 656 b 774 319 644 656 774 526 b 424 -17 774 136 635 -17 b 53 443 203 -17 53 174 b 499 989 53 806 265 989 b 782 894 600 989 700 958 l 689 750 b 504 822 643 792 576 822 b 239 564 360 822 265 722 b 465 656 296 622 374 656 m 422 150 b 588 332 518 150 586 229 b 429 501 588 435 518 501 b 235 379 333 501 278 456 b 422 150 253 235 317 150 "},"7":{"ha":746,"x_min":0,"x_max":0,"o":"m 129 0 b 510 806 160 251 313 540 l 31 806 l 31 972 l 707 972 l 707 806 b 324 0 500 514 342 225 l 129 0 "},"8":{"ha":801,"x_min":0,"x_max":0,"o":"m 403 -17 b 46 285 204 -17 46 101 b 222 524 46 394 114 489 b 89 724 139 561 89 639 b 403 989 89 879 215 989 b 714 724 589 989 714 879 b 581 524 714 638 663 560 b 756 285 689 490 756 394 b 403 -17 756 101 599 -17 m 403 585 b 535 717 482 599 533 643 b 403 843 535 790 483 843 b 267 717 319 843 265 790 b 403 585 267 643 321 599 m 401 140 b 561 288 500 140 561 201 b 401 440 561 375 500 428 b 239 288 304 428 239 375 b 401 140 239 201 304 140 "},"9":{"ha":828,"x_min":0,"x_max":0,"o":"m 403 989 b 775 529 625 989 775 799 b 328 -17 775 167 563 -17 b 46 78 226 -17 128 14 l 139 222 b 324 150 185 181 251 150 b 589 410 468 150 563 250 b 363 317 532 350 454 317 b 53 653 183 317 53 446 b 403 989 53 836 193 989 m 399 471 b 593 594 494 471 550 517 b 406 822 575 738 510 822 b 240 640 310 822 242 743 b 399 471 239 538 310 471 "},"A":{"ha":949,"x_min":0,"x_max":0,"o":"m 661 214 l 289 214 l 211 0 l 11 0 l 385 972 l 565 972 l 938 0 l 739 0 m 601 376 l 475 721 l 349 376 "},"Á":{"ha":949,"x_min":0,"x_max":0,"o":"m 524 1064 l 397 1064 l 483 1269 l 692 1269 m 661 214 l 289 214 l 211 0 l 11 0 l 385 972 l 565 972 l 938 0 l 739 0 m 601 376 l 475 721 l 349 376 "},"Ă":{"ha":949,"x_min":0,"x_max":0,"o":"m 474 1060 b 281 1249 363 1060 281 1140 l 413 1249 b 474 1176 413 1204 436 1176 b 538 1249 513 1176 538 1204 l 668 1249 b 474 1060 668 1140 586 1060 m 661 214 l 289 214 l 211 0 l 11 0 l 385 972 l 565 972 l 938 0 l 739 0 m 601 376 l 475 721 l 349 376 "},"Â":{"ha":949,"x_min":0,"x_max":0,"o":"m 371 1064 l 240 1064 l 397 1269 l 551 1269 l 710 1064 l 579 1064 l 475 1169 m 661 214 l 289 214 l 211 0 l 11 0 l 385 972 l 565 972 l 938 0 l 739 0 m 601 376 l 475 721 l 349 376 "},"Ä":{"ha":949,"x_min":0,"x_max":0,"o":"m 340 1085 b 240 1182 281 1085 240 1126 b 340 1279 240 1238 281 1279 b 442 1182 400 1279 442 1238 b 340 1085 442 1126 400 1085 m 608 1085 b 510 1182 551 1085 510 1126 b 608 1279 510 1238 551 1279 b 710 1182 668 1279 710 1238 b 608 1085 710 1126 668 1085 m 661 214 l 289 214 l 211 0 l 11 0 l 385 972 l 565 972 l 938 0 l 739 0 m 601 376 l 475 721 l 349 376 "},"À":{"ha":949,"x_min":0,"x_max":0,"o":"m 419 1064 l 251 1269 l 460 1269 l 546 1064 m 661 214 l 289 214 l 211 0 l 11 0 l 385 972 l 565 972 l 938 0 l 739 0 m 601 376 l 475 721 l 349 376 "},"Ā":{"ha":949,"x_min":0,"x_max":0,"o":"m 668 1100 l 282 1100 l 282 1232 l 668 1232 m 661 214 l 289 214 l 211 0 l 11 0 l 385 972 l 565 972 l 938 0 l 739 0 m 601 376 l 475 721 l 349 376 "},"Ą":{"ha":949,"x_min":0,"x_max":0,"o":"m 997 -254 b 921 -264 985 -258 953 -264 b 754 -122 821 -264 754 -207 b 807 0 754 -82 775 -35 l 739 0 l 661 214 l 289 214 l 211 0 l 11 0 l 385 972 l 565 972 l 938 0 l 939 0 b 892 -87 917 -22 892 -51 b 949 -142 892 -122 915 -142 b 981 -137 964 -142 975 -139 m 601 376 l 475 721 l 349 376 "},"Å":{"ha":949,"x_min":0,"x_max":0,"o":"m 475 1036 b 313 1190 382 1036 313 1103 b 475 1343 313 1278 382 1343 b 638 1190 569 1343 638 1278 b 475 1036 638 1103 569 1036 m 475 1253 b 410 1190 438 1253 410 1226 b 475 1126 410 1153 438 1126 b 540 1190 514 1126 540 1153 b 475 1253 540 1226 514 1253 m 661 214 l 289 214 l 211 0 l 11 0 l 385 972 l 565 972 l 938 0 l 739 0 m 601 376 l 475 721 l 349 376 "},"Ǻ":{"ha":949,"x_min":0,"x_max":0,"o":"m 475 1036 b 313 1190 382 1036 313 1103 b 415 1333 313 1257 354 1311 l 496 1526 l 704 1526 l 543 1331 b 638 1190 601 1307 638 1254 b 475 1036 638 1103 569 1036 m 475 1253 b 410 1190 438 1253 410 1226 b 475 1126 410 1153 438 1126 b 540 1190 514 1126 540 1153 b 475 1253 540 1226 514 1253 m 661 214 l 289 214 l 211 0 l 11 0 l 385 972 l 565 972 l 938 0 l 739 0 m 601 376 l 475 721 l 349 376 "},"Ã":{"ha":949,"x_min":0,"x_max":0,"o":"m 382 1146 b 326 1075 351 1146 332 1124 l 203 1093 b 379 1274 210 1201 279 1274 b 499 1238 422 1274 461 1260 b 574 1204 531 1217 546 1204 b 628 1276 603 1204 622 1228 l 753 1257 b 574 1076 746 1147 675 1076 b 457 1113 529 1076 492 1090 b 382 1146 426 1132 410 1146 m 661 214 l 289 214 l 211 0 l 11 0 l 385 972 l 565 972 l 938 0 l 739 0 m 601 376 l 475 721 l 349 376 "},"Æ":{"ha":1372,"x_min":0,"x_max":0,"o":"m 1319 167 l 1319 0 l 653 0 l 653 221 l 335 221 l 219 0 l 7 0 l 526 972 l 1304 972 l 1304 806 l 846 806 l 846 588 l 1213 588 l 1213 421 l 846 421 l 846 167 m 653 388 l 653 826 l 422 388 "},"Ǽ":{"ha":1372,"x_min":0,"x_max":0,"o":"m 751 1064 l 625 1064 l 711 1269 l 919 1269 m 1319 167 l 1319 0 l 653 0 l 653 221 l 335 221 l 219 0 l 7 0 l 526 972 l 1304 972 l 1304 806 l 846 806 l 846 588 l 1213 588 l 1213 421 l 846 421 l 846 167 m 653 388 l 653 826 l 422 388 "},"B":{"ha":882,"x_min":0,"x_max":0,"o":"m 92 972 l 475 972 b 781 722 653 972 781 883 b 664 531 781 631 724 561 b 829 289 756 496 829 418 b 489 0 829 107 692 0 l 92 0 m 457 585 b 599 699 551 585 599 625 b 454 811 599 771 551 811 l 285 811 l 285 585 m 469 161 b 647 296 590 161 647 208 b 469 432 647 383 590 432 l 285 432 l 285 161 "},"C":{"ha":988,"x_min":0,"x_max":0,"o":"m 521 -17 b 53 486 271 -17 53 156 b 521 989 53 818 275 989 b 939 658 749 989 894 863 l 750 619 b 519 821 725 743 636 821 b 247 486 367 821 247 703 b 519 151 247 269 367 151 b 744 338 638 151 719 224 l 938 294 b 521 -17 893 101 738 -17 "},"Ć":{"ha":988,"x_min":0,"x_max":0,"o":"m 515 1269 l 724 1269 l 556 1064 l 429 1064 m 521 -17 b 53 486 271 -17 53 156 b 521 989 53 818 275 989 b 939 658 749 989 894 863 l 750 619 b 519 821 725 743 636 821 b 247 486 367 821 247 703 b 519 151 247 269 367 151 b 744 338 638 151 719 224 l 938 294 b 521 -17 893 101 738 -17 "},"Č":{"ha":988,"x_min":0,"x_max":0,"o":"m 274 1269 l 404 1269 l 508 1163 l 613 1269 l 743 1269 l 585 1064 l 431 1064 m 521 -17 b 53 486 271 -17 53 156 b 521 989 53 818 275 989 b 939 658 749 989 894 863 l 750 619 b 519 821 725 743 636 821 b 247 486 367 821 247 703 b 519 151 247 269 367 151 b 744 338 638 151 719 224 l 938 294 b 521 -17 893 101 738 -17 "},"Ç":{"ha":988,"x_min":0,"x_max":0,"o":"m 519 151 b 744 338 638 151 719 224 l 938 294 b 586 -12 897 121 768 8 l 503 -206 l 294 -206 l 451 -12 b 53 486 232 17 53 186 b 521 989 53 818 275 989 b 939 658 749 989 894 863 l 750 619 b 519 821 725 743 636 821 b 247 486 367 821 247 703 b 519 151 247 269 367 151 "},"Ĉ":{"ha":988,"x_min":0,"x_max":0,"o":"m 585 1269 l 743 1064 l 613 1064 l 508 1169 l 404 1064 l 274 1064 l 431 1269 m 521 -17 b 53 486 271 -17 53 156 b 521 989 53 818 275 989 b 939 658 749 989 894 863 l 750 619 b 519 821 725 743 636 821 b 247 486 367 821 247 703 b 519 151 247 269 367 151 b 744 338 638 151 719 224 l 938 294 b 521 -17 893 101 738 -17 "},"Ċ":{"ha":988,"x_min":0,"x_max":0,"o":"m 507 1076 b 396 1188 444 1076 396 1126 b 507 1297 396 1249 444 1297 b 619 1188 571 1297 619 1249 b 507 1076 619 1126 571 1076 m 521 -17 b 53 486 271 -17 53 156 b 521 989 53 818 275 989 b 939 658 749 989 894 863 l 750 619 b 519 821 725 743 636 821 b 247 486 367 821 247 703 b 519 151 247 269 367 151 b 744 338 638 151 719 224 l 938 294 b 521 -17 893 101 738 -17 "},"D":{"ha":964,"x_min":0,"x_max":0,"o":"m 92 972 l 411 972 b 911 486 679 972 911 814 b 411 0 911 158 679 0 l 92 0 m 393 167 b 717 486 558 167 717 250 b 393 806 717 722 558 806 l 281 806 l 281 167 "},"Ð":{"ha":968,"x_min":0,"x_max":0,"o":"m 417 972 b 915 486 685 972 915 814 b 417 0 915 158 685 0 l 97 0 l 97 425 l 8 425 l 8 547 l 97 547 l 97 972 l 417 972 m 399 167 b 721 486 564 167 721 250 b 399 806 721 722 564 806 l 286 806 l 286 547 l 447 547 l 447 425 l 286 425 l 286 167 l 399 167 "},"Ď":{"ha":964,"x_min":0,"x_max":0,"o":"m 193 1269 l 324 1269 l 428 1163 l 532 1269 l 663 1269 l 504 1064 l 350 1064 m 92 972 l 411 972 b 911 486 679 972 911 814 b 411 0 911 158 679 0 l 92 0 m 393 167 b 717 486 558 167 717 250 b 393 806 717 722 558 806 l 281 806 l 281 167 "},"Đ":{"ha":968,"x_min":0,"x_max":0,"o":"m 417 972 b 915 486 685 972 915 814 b 417 0 915 158 685 0 l 97 0 l 97 425 l 8 425 l 8 547 l 97 547 l 97 972 l 417 972 m 399 167 b 721 486 564 167 721 250 b 399 806 721 722 564 806 l 286 806 l 286 547 l 447 547 l 447 425 l 286 425 l 286 167 l 399 167 "},"E":{"ha":813,"x_min":0,"x_max":0,"o":"m 758 167 l 758 0 l 92 0 l 92 972 l 743 972 l 743 806 l 285 806 l 285 588 l 651 588 l 651 421 l 285 421 l 285 167 "},"É":{"ha":813,"x_min":0,"x_max":0,"o":"m 469 1064 l 343 1064 l 429 1269 l 638 1269 m 758 167 l 758 0 l 92 0 l 92 972 l 743 972 l 743 806 l 285 806 l 285 588 l 651 588 l 651 421 l 285 421 l 285 167 "},"Ĕ":{"ha":813,"x_min":0,"x_max":0,"o":"m 421 1060 b 228 1249 310 1060 228 1140 l 360 1249 b 421 1176 360 1204 383 1176 b 485 1249 460 1176 485 1204 l 615 1249 b 421 1060 615 1140 533 1060 m 758 167 l 758 0 l 92 0 l 92 972 l 743 972 l 743 806 l 285 806 l 285 588 l 651 588 l 651 421 l 285 421 l 285 167 "},"Ě":{"ha":813,"x_min":0,"x_max":0,"o":"m 344 1064 l 188 1269 l 318 1269 l 422 1163 l 526 1269 l 657 1269 l 499 1064 m 758 167 l 758 0 l 92 0 l 92 972 l 743 972 l 743 806 l 285 806 l 285 588 l 651 588 l 651 421 l 285 421 l 285 167 "},"Ê":{"ha":813,"x_min":0,"x_max":0,"o":"m 318 1064 l 188 1064 l 344 1269 l 499 1269 l 657 1064 l 526 1064 l 422 1169 m 758 167 l 758 0 l 92 0 l 92 972 l 743 972 l 743 806 l 285 806 l 285 588 l 651 588 l 651 421 l 285 421 l 285 167 "},"Ë":{"ha":813,"x_min":0,"x_max":0,"o":"m 288 1085 b 188 1182 228 1085 188 1126 b 288 1279 188 1238 228 1279 b 389 1182 347 1279 389 1238 b 288 1085 389 1126 347 1085 m 556 1085 b 457 1182 499 1085 457 1126 b 556 1279 457 1238 499 1279 b 657 1182 615 1279 657 1238 b 556 1085 657 1126 615 1085 m 758 167 l 758 0 l 92 0 l 92 972 l 743 972 l 743 806 l 285 806 l 285 588 l 651 588 l 651 421 l 285 421 l 285 167 "},"Ė":{"ha":813,"x_min":0,"x_max":0,"o":"m 421 1076 b 310 1188 358 1076 310 1126 b 421 1297 310 1249 358 1297 b 533 1188 485 1297 533 1249 b 421 1076 533 1126 485 1076 m 758 167 l 758 0 l 92 0 l 92 972 l 743 972 l 743 806 l 285 806 l 285 588 l 651 588 l 651 421 l 285 421 l 285 167 "},"È":{"ha":813,"x_min":0,"x_max":0,"o":"m 367 1064 l 199 1269 l 407 1269 l 493 1064 m 758 167 l 758 0 l 92 0 l 92 972 l 743 972 l 743 806 l 285 806 l 285 588 l 651 588 l 651 421 l 285 421 l 285 167 "},"Ē":{"ha":813,"x_min":0,"x_max":0,"o":"m 615 1100 l 229 1100 l 229 1232 l 615 1232 m 758 167 l 758 0 l 92 0 l 92 972 l 743 972 l 743 806 l 285 806 l 285 588 l 651 588 l 651 421 l 285 421 l 285 167 "},"Ę":{"ha":813,"x_min":0,"x_max":0,"o":"m 818 -254 b 742 -264 806 -258 774 -264 b 575 -122 642 -264 575 -207 b 628 0 575 -82 596 -35 l 92 0 l 92 972 l 743 972 l 743 806 l 285 806 l 285 588 l 651 588 l 651 421 l 285 421 l 285 167 l 758 167 l 758 0 l 760 0 b 713 -87 738 -22 713 -51 b 769 -142 713 -122 736 -142 b 801 -137 785 -142 796 -139 "},"F":{"ha":792,"x_min":0,"x_max":0,"o":"m 92 972 l 753 972 l 753 806 l 285 806 l 285 590 l 663 590 l 663 424 l 285 424 l 285 0 l 92 0 "},"G":{"ha":1065,"x_min":0,"x_max":0,"o":"m 544 -17 b 53 486 254 -17 53 190 b 543 989 53 782 254 989 b 993 661 774 989 956 858 l 801 621 b 543 821 775 744 672 821 b 244 486 365 821 244 685 b 543 151 244 288 365 151 b 801 365 686 151 790 239 l 486 365 l 486 521 l 1006 521 l 1006 444 b 544 -17 1006 169 819 -17 "},"Ğ":{"ha":1065,"x_min":0,"x_max":0,"o":"m 538 1060 b 344 1249 426 1060 344 1140 l 476 1249 b 538 1176 476 1204 500 1176 b 601 1249 576 1176 601 1204 l 732 1249 b 538 1060 732 1140 650 1060 m 544 -17 b 53 486 254 -17 53 190 b 543 989 53 782 254 989 b 993 661 774 989 956 858 l 801 621 b 543 821 775 744 672 821 b 244 486 365 821 244 685 b 543 151 244 288 365 151 b 801 365 686 151 790 239 l 486 365 l 486 521 l 1006 521 l 1006 444 b 544 -17 1006 169 819 -17 "},"Ĝ":{"ha":1065,"x_min":0,"x_max":0,"o":"m 615 1269 l 774 1064 l 643 1064 l 539 1169 l 435 1064 l 304 1064 l 461 1269 m 544 -17 b 53 486 254 -17 53 190 b 543 989 53 782 254 989 b 993 661 774 989 956 858 l 801 621 b 543 821 775 744 672 821 b 244 486 365 821 244 685 b 543 151 244 288 365 151 b 801 365 686 151 790 239 l 486 365 l 486 521 l 1006 521 l 1006 444 b 544 -17 1006 169 819 -17 "},"Ģ":{"ha":1065,"x_min":0,"x_max":0,"o":"m 544 -17 b 53 486 254 -17 53 190 b 543 989 53 782 254 989 b 993 661 774 989 956 858 l 801 621 b 543 821 775 744 672 821 b 244 486 365 821 244 685 b 543 151 244 288 365 151 b 801 365 686 151 790 239 l 486 365 l 486 521 l 1006 521 l 1006 444 b 544 -17 1006 169 819 -17 m 443 -58 l 638 -58 l 515 -264 l 389 -264 "},"Ġ":{"ha":1065,"x_min":0,"x_max":0,"o":"m 538 1076 b 426 1188 475 1076 426 1126 b 538 1297 426 1249 475 1297 b 650 1188 601 1297 650 1249 b 538 1076 650 1126 601 1076 m 544 -17 b 53 486 254 -17 53 190 b 543 989 53 782 254 989 b 993 661 774 989 956 858 l 801 621 b 543 821 775 744 672 821 b 244 486 365 821 244 685 b 543 151 244 288 365 151 b 801 365 686 151 790 239 l 486 365 l 486 521 l 1006 521 l 1006 444 b 544 -17 1006 169 819 -17 "},"H":{"ha":990,"x_min":0,"x_max":0,"o":"m 899 972 l 899 0 l 706 0 l 706 424 l 285 424 l 285 0 l 92 0 l 92 972 l 285 972 l 285 590 l 706 590 l 706 972 "},"Ħ":{"ha":990,"x_min":0,"x_max":0,"o":"m 986 710 l 899 710 l 899 0 l 706 0 l 706 424 l 285 424 l 285 0 l 92 0 l 92 710 l 3 710 l 3 853 l 92 853 l 92 972 l 285 972 l 285 853 l 706 853 l 706 972 l 899 972 l 899 853 l 986 853 m 706 710 l 285 710 l 285 590 l 706 590 "},"Ĥ":{"ha":990,"x_min":0,"x_max":0,"o":"m 390 1064 l 260 1064 l 417 1269 l 571 1269 l 729 1064 l 599 1064 l 494 1169 m 899 972 l 899 0 l 706 0 l 706 424 l 285 424 l 285 0 l 92 0 l 92 972 l 285 972 l 285 590 l 706 590 l 706 972 "},"I":{"ha":376,"x_min":0,"x_max":0,"o":"m 92 972 l 285 972 l 285 0 l 92 0 "},"Ĳ":{"ha":1144,"x_min":0,"x_max":0,"o":"m 92 972 l 285 972 l 285 0 l 92 0 m 575 311 b 719 151 586 206 643 151 b 861 347 803 151 861 215 l 861 972 l 1053 972 l 1053 340 b 725 -17 1053 101 915 -17 b 400 269 556 -17 425 82 l 575 311 "},"Í":{"ha":376,"x_min":0,"x_max":0,"o":"m 196 1269 l 404 1269 l 236 1064 l 110 1064 m 92 972 l 285 972 l 285 0 l 92 0 "},"Ĭ":{"ha":376,"x_min":0,"x_max":0,"o":"m 188 1060 b -6 1249 76 1060 -6 1140 l 126 1249 b 188 1176 126 1204 150 1176 b 251 1249 226 1176 251 1204 l 382 1249 b 188 1060 382 1140 300 1060 m 92 972 l 285 972 l 285 0 l 92 0 "},"Î":{"ha":376,"x_min":0,"x_max":0,"o":"m 265 1269 l 424 1064 l 293 1064 l 189 1169 l 85 1064 l -46 1064 l 111 1269 m 92 972 l 285 972 l 285 0 l 92 0 "},"Ï":{"ha":376,"x_min":0,"x_max":0,"o":"m 54 1085 b -46 1182 -6 1085 -46 1126 b 54 1279 -46 1238 -6 1279 b 156 1182 114 1279 156 1238 b 54 1085 156 1126 114 1085 m 322 1085 b 224 1182 265 1085 224 1126 b 322 1279 224 1238 265 1279 b 424 1182 382 1279 424 1238 b 322 1085 424 1126 382 1085 m 92 972 l 285 972 l 285 0 l 92 0 "},"İ":{"ha":376,"x_min":0,"x_max":0,"o":"m 188 1076 b 76 1188 125 1076 76 1126 b 188 1297 76 1249 125 1297 b 300 1188 251 1297 300 1249 b 188 1076 300 1126 251 1076 m 92 972 l 285 972 l 285 0 l 92 0 "},"Ì":{"ha":376,"x_min":0,"x_max":0,"o":"m 133 1064 l -35 1269 l 174 1269 l 260 1064 m 92 972 l 285 972 l 285 0 l 92 0 "},"Ī":{"ha":376,"x_min":0,"x_max":0,"o":"m -6 1232 l 381 1232 l 381 1100 l -6 1100 m 92 972 l 285 972 l 285 0 l 92 0 "},"Į":{"ha":376,"x_min":0,"x_max":0,"o":"m 343 -254 b 267 -264 331 -258 299 -264 b 100 -122 167 -264 100 -207 b 153 0 100 -82 121 -35 l 92 0 l 92 972 l 285 972 l 285 0 b 238 -87 263 -22 238 -51 b 294 -142 238 -122 261 -142 b 326 -137 310 -142 321 -139 "},"Ĩ":{"ha":376,"x_min":0,"x_max":0,"o":"m 211 1238 b 286 1204 243 1217 258 1204 b 340 1276 315 1204 335 1228 l 465 1257 b 286 1076 458 1147 388 1076 b 169 1113 242 1076 204 1090 b 94 1146 139 1132 122 1146 b 39 1075 64 1146 44 1124 l -85 1093 b 92 1274 -78 1201 -8 1274 b 211 1238 135 1274 174 1260 m 92 972 l 285 972 l 285 0 l 92 0 "},"J":{"ha":768,"x_min":0,"x_max":0,"o":"m 199 311 b 343 151 210 206 267 151 b 485 347 426 151 485 215 l 485 972 l 676 972 l 676 340 b 349 -17 676 101 539 -17 b 24 269 179 -17 49 82 l 199 311 "},"Ĵ":{"ha":768,"x_min":0,"x_max":0,"o":"m 656 1269 l 814 1064 l 683 1064 l 579 1169 l 475 1064 l 344 1064 l 501 1269 m 199 311 b 343 151 210 206 267 151 b 485 347 426 151 485 215 l 485 972 l 676 972 l 676 340 b 349 -17 676 101 539 -17 b 24 269 179 -17 49 82 l 199 311 "},"K":{"ha":935,"x_min":0,"x_max":0,"o":"m 328 424 l 285 424 l 285 0 l 92 0 l 92 972 l 285 972 l 285 590 l 326 590 l 663 972 l 899 972 l 483 513 l 919 0 l 667 0 "},"Ķ":{"ha":935,"x_min":0,"x_max":0,"o":"m 919 0 l 667 0 l 328 424 l 285 424 l 285 0 l 92 0 l 92 972 l 285 972 l 285 590 l 326 590 l 663 972 l 899 972 l 483 513 m 358 -58 l 553 -58 l 431 -264 l 304 -264 "},"L":{"ha":772,"x_min":0,"x_max":0,"o":"m 92 972 l 285 972 l 285 167 l 735 167 l 735 0 l 92 0 "},"Ĺ":{"ha":772,"x_min":0,"x_max":0,"o":"m 182 1269 l 390 1269 l 222 1064 l 96 1064 m 92 972 l 285 972 l 285 167 l 735 167 l 735 0 l 92 0 "},"Ľ":{"ha":772,"x_min":0,"x_max":0,"o":"m 400 1057 l 572 1057 l 461 797 l 357 797 m 92 972 l 285 972 l 285 167 l 735 167 l 735 0 l 92 0 "},"Ļ":{"ha":772,"x_min":0,"x_max":0,"o":"m 92 972 l 285 972 l 285 167 l 735 167 l 735 0 l 92 0 m 300 -58 l 494 -58 l 372 -264 l 246 -264 "},"Ŀ":{"ha":772,"x_min":0,"x_max":0,"o":"m 92 972 l 285 972 l 285 167 l 735 167 l 735 0 l 92 0 m 574 403 b 463 513 511 403 463 450 b 574 622 463 575 511 622 b 686 513 638 622 686 575 b 574 403 686 450 638 403 "},"Ł":{"ha":808,"x_min":0,"x_max":0,"o":"m 771 167 l 771 0 l 128 0 l 128 374 l -3 310 l -3 432 l 128 496 l 128 972 l 321 972 l 321 590 l 624 739 l 624 615 l 321 468 l 321 167 "},"M":{"ha":1304,"x_min":0,"x_max":0,"o":"m 190 972 l 403 972 l 651 408 l 903 972 l 1113 972 l 1242 0 l 1050 0 l 957 683 l 722 136 l 582 136 l 344 683 l 253 0 l 63 0 "},"N":{"ha":971,"x_min":0,"x_max":0,"o":"m 92 972 l 286 972 l 699 299 l 699 972 l 878 972 l 878 0 l 685 0 l 271 672 l 271 0 l 92 0 "},"Ń":{"ha":971,"x_min":0,"x_max":0,"o":"m 494 1269 l 703 1269 l 535 1064 l 408 1064 m 92 972 l 286 972 l 699 299 l 699 972 l 878 972 l 878 0 l 685 0 l 271 672 l 271 0 l 92 0 "},"Ň":{"ha":971,"x_min":0,"x_max":0,"o":"m 251 1269 l 382 1269 l 486 1163 l 590 1269 l 721 1269 l 563 1064 l 408 1064 m 92 972 l 286 972 l 699 299 l 699 972 l 878 972 l 878 0 l 685 0 l 271 672 l 271 0 l 92 0 "},"Ņ":{"ha":971,"x_min":0,"x_max":0,"o":"m 92 972 l 286 972 l 699 299 l 699 972 l 878 972 l 878 0 l 685 0 l 271 672 l 271 0 l 92 0 m 394 -58 l 589 -58 l 467 -264 l 340 -264 "},"Ŋ":{"ha":971,"x_min":0,"x_max":0,"o":"m 878 972 l 878 -26 b 618 -282 878 -185 775 -282 b 575 -279 604 -282 576 -279 l 575 -125 l 597 -125 b 699 -4 667 -125 699 -85 l 271 672 l 271 0 l 92 0 l 92 972 l 286 972 l 699 304 l 699 972 "},"Ñ":{"ha":971,"x_min":0,"x_max":0,"o":"m 510 1238 b 585 1204 542 1217 557 1204 b 639 1276 614 1204 633 1228 l 764 1257 b 585 1076 757 1147 686 1076 b 468 1113 540 1076 503 1090 b 393 1146 438 1132 421 1146 b 338 1075 363 1146 343 1124 l 214 1093 b 390 1274 221 1201 290 1274 b 510 1238 433 1274 472 1260 m 92 972 l 286 972 l 699 299 l 699 972 l 878 972 l 878 0 l 685 0 l 271 672 l 271 0 l 92 0 "},"O":{"ha":1060,"x_min":0,"x_max":0,"o":"m 531 989 b 1007 486 804 989 1007 775 b 531 -17 1007 197 804 -17 b 53 486 254 -17 53 197 b 531 989 53 775 254 989 m 531 821 b 246 486 364 821 246 678 b 531 151 246 294 364 151 b 814 486 696 151 814 294 b 531 821 814 678 696 821 "},"Ó":{"ha":1060,"x_min":0,"x_max":0,"o":"m 538 1269 l 746 1269 l 578 1064 l 451 1064 m 531 989 b 1007 486 804 989 1007 775 b 531 -17 1007 197 804 -17 b 53 486 254 -17 53 197 b 531 989 53 775 254 989 m 531 821 b 246 486 364 821 246 678 b 531 151 246 294 364 151 b 814 486 696 151 814 294 b 531 821 814 678 696 821 "},"Ŏ":{"ha":1060,"x_min":0,"x_max":0,"o":"m 529 1060 b 336 1249 418 1060 336 1140 l 468 1249 b 529 1176 468 1204 492 1176 b 593 1249 568 1176 593 1204 l 724 1249 b 529 1060 724 1140 642 1060 m 531 989 b 1007 486 804 989 1007 775 b 531 -17 1007 197 804 -17 b 53 486 254 -17 53 197 b 531 989 53 775 254 989 m 531 821 b 246 486 364 821 246 678 b 531 151 246 294 364 151 b 814 486 696 151 814 294 b 531 821 814 678 696 821 "},"Ô":{"ha":1060,"x_min":0,"x_max":0,"o":"m 607 1269 l 765 1064 l 635 1064 l 531 1169 l 426 1064 l 296 1064 l 453 1269 m 531 989 b 1007 486 804 989 1007 775 b 531 -17 1007 197 804 -17 b 53 486 254 -17 53 197 b 531 989 53 775 254 989 m 531 821 b 246 486 364 821 246 678 b 531 151 246 294 364 151 b 814 486 696 151 814 294 b 531 821 814 678 696 821 "},"Ö":{"ha":1060,"x_min":0,"x_max":0,"o":"m 396 1085 b 296 1182 336 1085 296 1126 b 396 1279 296 1238 336 1279 b 497 1182 456 1279 497 1238 b 396 1085 497 1126 456 1085 m 664 1085 b 565 1182 607 1085 565 1126 b 664 1279 565 1238 607 1279 b 765 1182 724 1279 765 1238 b 664 1085 765 1126 724 1085 m 531 989 b 1007 486 804 989 1007 775 b 531 -17 1007 197 804 -17 b 53 486 254 -17 53 197 b 531 989 53 775 254 989 m 531 821 b 246 486 364 821 246 678 b 531 151 246 294 364 151 b 814 486 696 151 814 294 b 531 821 814 678 696 821 "},"Ò":{"ha":1060,"x_min":0,"x_max":0,"o":"m 475 1064 l 307 1269 l 515 1269 l 601 1064 m 531 989 b 1007 486 804 989 1007 775 b 531 -17 1007 197 804 -17 b 53 486 254 -17 53 197 b 531 989 53 775 254 989 m 531 821 b 246 486 364 821 246 678 b 531 151 246 294 364 151 b 814 486 696 151 814 294 b 531 821 814 678 696 821 "},"Ő":{"ha":1060,"x_min":0,"x_max":0,"o":"m 419 1269 l 574 1269 l 475 1064 l 333 1064 m 650 1269 l 814 1269 l 706 1064 l 564 1064 m 531 989 b 1007 486 804 989 1007 775 b 531 -17 1007 197 804 -17 b 53 486 254 -17 53 197 b 531 989 53 775 254 989 m 531 821 b 246 486 364 821 246 678 b 531 151 246 294 364 151 b 814 486 696 151 814 294 b 531 821 814 678 696 821 "},"Ō":{"ha":1060,"x_min":0,"x_max":0,"o":"m 338 1232 l 724 1232 l 724 1100 l 338 1100 m 531 989 b 1007 486 804 989 1007 775 b 531 -17 1007 197 804 -17 b 53 486 254 -17 53 197 b 531 989 53 775 254 989 m 531 821 b 246 486 364 821 246 678 b 531 151 246 294 364 151 b 814 486 696 151 814 294 b 531 821 814 678 696 821 "},"Ø":{"ha":1060,"x_min":0,"x_max":0,"o":"m 869 847 b 1007 486 956 758 1007 632 b 531 -17 1007 197 804 -17 b 303 39 446 -17 369 3 l 207 -97 l 96 -11 l 190 124 b 53 486 104 214 53 340 b 531 989 53 775 254 989 b 758 933 614 989 692 969 l 854 1069 l 965 983 l 869 847 m 246 486 b 301 281 246 407 265 336 l 657 789 b 531 821 619 810 576 821 b 246 486 364 821 246 678 m 531 151 b 814 486 696 151 814 294 b 760 690 814 564 794 635 l 404 183 b 531 151 442 163 483 151 "},"Õ":{"ha":1060,"x_min":0,"x_max":0,"o":"m 553 1238 b 628 1204 585 1217 600 1204 b 682 1276 657 1204 676 1228 l 807 1257 b 628 1076 800 1147 729 1076 b 511 1113 583 1076 546 1090 b 436 1146 481 1132 464 1146 b 381 1075 406 1146 386 1124 l 257 1093 b 433 1274 264 1201 333 1274 b 553 1238 476 1274 515 1260 m 531 989 b 1007 486 804 989 1007 775 b 531 -17 1007 197 804 -17 b 53 486 254 -17 53 197 b 531 989 53 775 254 989 m 531 821 b 246 486 364 821 246 678 b 531 151 246 294 364 151 b 814 486 696 151 814 294 b 531 821 814 678 696 821 "},"Œ":{"ha":1547,"x_min":0,"x_max":0,"o":"m 1493 167 l 1493 0 l 826 0 l 826 85 b 531 -17 746 21 644 -17 b 53 486 254 -17 53 197 b 531 989 53 775 254 989 b 826 888 644 989 746 951 l 826 972 l 1478 972 l 1478 806 l 1019 806 l 1019 588 l 1386 588 l 1386 421 l 1019 421 l 1019 167 m 531 151 b 814 486 696 151 814 294 b 531 821 814 678 696 821 b 246 486 364 821 246 678 b 531 151 246 294 364 151 "},"P":{"ha":847,"x_min":0,"x_max":0,"o":"m 92 972 l 485 972 b 810 675 682 972 810 856 b 485 376 810 494 682 376 l 285 376 l 285 0 l 92 0 m 468 543 b 617 675 561 543 617 592 b 468 806 617 757 561 806 l 285 806 l 285 543 "},"Þ":{"ha":839,"x_min":0,"x_max":0,"o":"m 92 972 l 285 972 l 285 782 l 485 782 b 810 492 689 782 810 667 b 485 200 810 315 689 200 l 285 200 l 285 0 l 92 0 m 476 361 b 624 492 574 361 624 411 b 476 622 624 572 574 622 l 285 622 l 285 361 "},"Q":{"ha":1061,"x_min":0,"x_max":0,"o":"m 1040 -51 b 903 -69 986 -64 946 -69 b 694 11 804 -69 742 -36 b 531 -17 644 -7 589 -17 b 53 486 254 -17 53 197 b 531 989 53 775 254 989 b 1007 486 804 989 1007 775 b 844 100 1007 326 946 190 b 908 85 863 90 883 85 b 1015 101 947 85 971 89 m 531 821 b 246 486 364 821 246 678 b 249 435 246 468 247 451 b 426 474 306 460 361 474 b 732 244 614 474 676 351 b 814 486 783 304 814 389 b 531 821 814 678 696 821 m 531 151 b 597 160 554 151 576 154 b 422 314 554 242 514 314 b 296 289 378 314 339 306 b 531 151 346 204 429 151 "},"R":{"ha":901,"x_min":0,"x_max":0,"o":"m 660 0 l 429 424 l 286 424 l 286 0 l 94 0 l 92 972 l 465 972 b 776 697 654 972 776 872 b 622 456 776 586 719 499 l 879 0 m 286 585 l 435 585 b 583 696 529 585 583 617 b 435 806 583 774 529 806 l 286 806 "},"Ŕ":{"ha":901,"x_min":0,"x_max":0,"o":"m 453 1064 l 326 1064 l 413 1269 l 621 1269 m 660 0 l 429 424 l 286 424 l 286 0 l 94 0 l 92 972 l 465 972 b 776 697 654 972 776 872 b 622 456 776 586 719 499 l 879 0 m 286 585 l 435 585 b 583 696 529 585 583 617 b 435 806 583 774 529 806 l 286 806 "},"Ř":{"ha":901,"x_min":0,"x_max":0,"o":"m 328 1064 l 171 1269 l 301 1269 l 406 1163 l 510 1269 l 640 1269 l 482 1064 m 660 0 l 429 424 l 286 424 l 286 0 l 94 0 l 92 972 l 465 972 b 776 697 654 972 776 872 b 622 456 776 586 719 499 l 879 0 m 286 585 l 435 585 b 583 696 529 585 583 617 b 435 806 583 774 529 806 l 286 806 "},"Ŗ":{"ha":901,"x_min":0,"x_max":0,"o":"m 879 0 l 660 0 l 429 424 l 286 424 l 286 0 l 94 0 l 92 972 l 465 972 b 776 697 654 972 776 872 b 622 456 776 586 719 499 m 286 585 l 435 585 b 583 696 529 585 583 617 b 435 806 583 774 529 806 l 286 806 m 342 -58 l 536 -58 l 414 -264 l 288 -264 "},"S":{"ha":794,"x_min":0,"x_max":0,"o":"m 393 -17 b 24 293 201 -17 54 115 l 193 344 b 401 150 217 228 296 150 b 558 271 496 150 558 199 b 56 719 558 479 56 361 b 389 989 56 876 200 989 b 733 767 558 989 682 901 l 568 676 b 389 822 536 765 483 822 b 249 719 300 822 249 783 b 753 276 249 544 753 674 b 393 -17 753 100 610 -17 "},"Ś":{"ha":794,"x_min":0,"x_max":0,"o":"m 393 1269 l 601 1269 l 433 1064 l 307 1064 m 393 -17 b 24 293 201 -17 54 115 l 193 344 b 401 150 217 228 296 150 b 558 271 496 150 558 199 b 56 719 558 479 56 361 b 389 989 56 876 200 989 b 733 767 558 989 682 901 l 568 676 b 389 822 536 765 483 822 b 249 719 300 822 249 783 b 753 276 249 544 753 674 b 393 -17 753 100 610 -17 "},"Š":{"ha":794,"x_min":0,"x_max":0,"o":"m 151 1269 l 282 1269 l 386 1163 l 490 1269 l 621 1269 l 463 1064 l 308 1064 m 393 -17 b 24 293 201 -17 54 115 l 193 344 b 401 150 217 228 296 150 b 558 271 496 150 558 199 b 56 719 558 479 56 361 b 389 989 56 876 200 989 b 733 767 558 989 682 901 l 568 676 b 389 822 536 765 483 822 b 249 719 300 822 249 783 b 753 276 249 544 753 674 b 393 -17 753 100 610 -17 "},"Ş":{"ha":794,"x_min":0,"x_max":0,"o":"m 753 276 b 469 -11 753 122 643 13 l 386 -206 l 178 -206 l 335 -12 b 24 293 172 11 51 133 l 193 344 b 401 150 217 228 296 150 b 558 271 496 150 558 199 b 56 719 558 479 56 361 b 389 989 56 876 200 989 b 733 767 558 989 682 901 l 568 676 b 389 822 536 765 483 822 b 249 719 300 822 249 783 b 753 276 249 544 753 674 "},"Ŝ":{"ha":794,"x_min":0,"x_max":0,"o":"m 463 1269 l 621 1064 l 490 1064 l 386 1169 l 282 1064 l 151 1064 l 308 1269 m 393 -17 b 24 293 201 -17 54 115 l 193 344 b 401 150 217 228 296 150 b 558 271 496 150 558 199 b 56 719 558 479 56 361 b 389 989 56 876 200 989 b 733 767 558 989 682 901 l 568 676 b 389 822 536 765 483 822 b 249 719 300 822 249 783 b 753 276 249 544 753 674 b 393 -17 753 100 610 -17 "},"Ș":{"ha":794,"x_min":0,"x_max":0,"o":"m 393 -17 b 24 293 201 -17 54 115 l 193 344 b 401 150 217 228 296 150 b 558 271 496 150 558 199 b 56 719 558 479 56 361 b 389 989 56 876 200 989 b 733 767 558 989 682 901 l 568 676 b 389 822 536 765 483 822 b 249 719 300 822 249 783 b 753 276 249 544 753 674 b 393 -17 753 100 610 -17 m 307 -58 l 501 -58 l 379 -264 l 253 -264 "},"ẞ":{"ha":899,"x_min":0,"x_max":0,"o":"m 519 165 b 665 300 606 165 665 221 b 513 426 665 376 606 425 l 419 426 l 406 532 l 606 731 b 456 825 586 789 524 825 b 285 619 357 825 285 744 l 285 0 l 92 0 l 92 621 b 456 989 92 850 247 989 b 797 713 642 989 782 874 l 629 550 b 846 299 750 519 846 422 b 536 0 846 124 718 0 l 378 0 l 378 167 "},"T":{"ha":832,"x_min":0,"x_max":0,"o":"m 319 806 l 28 806 l 28 972 l 804 972 l 804 806 l 513 806 l 513 0 l 319 0 "},"Ŧ":{"ha":832,"x_min":0,"x_max":0,"o":"m 513 806 l 513 560 l 661 560 l 661 438 l 513 438 l 513 0 l 319 0 l 319 438 l 171 438 l 171 560 l 319 560 l 319 806 l 28 806 l 28 972 l 804 972 l 804 806 "},"Ť":{"ha":832,"x_min":0,"x_max":0,"o":"m 182 1269 l 313 1269 l 417 1163 l 521 1269 l 651 1269 l 493 1064 l 339 1064 m 319 806 l 28 806 l 28 972 l 804 972 l 804 806 l 513 806 l 513 0 l 319 0 "},"Ţ":{"ha":832,"x_min":0,"x_max":0,"o":"m 513 806 l 513 0 l 514 0 l 425 -206 l 217 -206 l 383 0 l 319 0 l 319 806 l 28 806 l 28 972 l 804 972 l 804 806 "},"Ț":{"ha":832,"x_min":0,"x_max":0,"o":"m 319 806 l 28 806 l 28 972 l 804 972 l 804 806 l 513 806 l 513 0 l 319 0 m 326 -58 l 521 -58 l 399 -264 l 272 -264 "},"U":{"ha":951,"x_min":0,"x_max":0,"o":"m 476 -17 b 92 350 249 -17 92 110 l 92 972 l 271 972 l 271 349 b 476 150 271 217 356 150 b 682 349 596 150 682 217 l 682 972 l 860 972 l 860 350 b 476 -17 860 110 704 -17 "},"Ú":{"ha":951,"x_min":0,"x_max":0,"o":"m 483 1269 l 692 1269 l 524 1064 l 397 1064 m 476 -17 b 92 350 249 -17 92 110 l 92 972 l 271 972 l 271 349 b 476 150 271 217 356 150 b 682 349 596 150 682 217 l 682 972 l 860 972 l 860 350 b 476 -17 860 110 704 -17 "},"Ŭ":{"ha":951,"x_min":0,"x_max":0,"o":"m 475 1060 b 282 1249 364 1060 282 1140 l 414 1249 b 475 1176 414 1204 438 1176 b 539 1249 514 1176 539 1204 l 669 1249 b 475 1060 669 1140 588 1060 m 476 -17 b 92 350 249 -17 92 110 l 92 972 l 271 972 l 271 349 b 476 150 271 217 356 150 b 682 349 596 150 682 217 l 682 972 l 860 972 l 860 350 b 476 -17 860 110 704 -17 "},"Û":{"ha":951,"x_min":0,"x_max":0,"o":"m 553 1269 l 711 1064 l 581 1064 l 476 1169 l 372 1064 l 242 1064 l 399 1269 m 476 -17 b 92 350 249 -17 92 110 l 92 972 l 271 972 l 271 349 b 476 150 271 217 356 150 b 682 349 596 150 682 217 l 682 972 l 860 972 l 860 350 b 476 -17 860 110 704 -17 "},"Ü":{"ha":951,"x_min":0,"x_max":0,"o":"m 342 1085 b 242 1182 282 1085 242 1126 b 342 1279 242 1238 282 1279 b 443 1182 401 1279 443 1238 b 342 1085 443 1126 401 1085 m 610 1085 b 511 1182 553 1085 511 1126 b 610 1279 511 1238 553 1279 b 711 1182 669 1279 711 1238 b 610 1085 711 1126 669 1085 m 476 -17 b 92 350 249 -17 92 110 l 92 972 l 271 972 l 271 349 b 476 150 271 217 356 150 b 682 349 596 150 682 217 l 682 972 l 860 972 l 860 350 b 476 -17 860 110 704 -17 "},"Ù":{"ha":951,"x_min":0,"x_max":0,"o":"m 421 1064 l 253 1269 l 461 1269 l 547 1064 m 476 -17 b 92 350 249 -17 92 110 l 92 972 l 271 972 l 271 349 b 476 150 271 217 356 150 b 682 349 596 150 682 217 l 682 972 l 860 972 l 860 350 b 476 -17 860 110 704 -17 "},"Ű":{"ha":951,"x_min":0,"x_max":0,"o":"m 365 1269 l 519 1269 l 421 1064 l 279 1064 m 596 1269 l 760 1269 l 651 1064 l 510 1064 m 476 -17 b 92 350 249 -17 92 110 l 92 972 l 271 972 l 271 349 b 476 150 271 217 356 150 b 682 349 596 150 682 217 l 682 972 l 860 972 l 860 350 b 476 -17 860 110 704 -17 "},"Ū":{"ha":951,"x_min":0,"x_max":0,"o":"m 283 1232 l 669 1232 l 669 1100 l 283 1100 m 476 -17 b 92 350 249 -17 92 110 l 92 972 l 271 972 l 271 349 b 476 150 271 217 356 150 b 682 349 596 150 682 217 l 682 972 l 860 972 l 860 350 b 476 -17 860 110 704 -17 "},"Ų":{"ha":951,"x_min":0,"x_max":0,"o":"m 860 972 l 860 350 b 511 -15 860 122 719 -3 b 479 -87 494 -35 479 -60 b 536 -142 479 -122 503 -142 b 568 -137 551 -142 563 -139 l 585 -254 b 508 -264 572 -258 540 -264 b 342 -122 408 -264 342 -207 b 386 -10 342 -85 360 -43 b 92 350 208 21 92 143 l 92 972 l 271 972 l 271 349 b 476 150 271 217 356 150 b 682 349 596 150 682 217 l 682 972 "},"Ů":{"ha":951,"x_min":0,"x_max":0,"o":"m 475 1036 b 313 1190 382 1036 313 1103 b 475 1343 313 1278 382 1343 b 638 1190 569 1343 638 1278 b 475 1036 638 1103 569 1036 m 475 1126 b 540 1190 514 1126 540 1153 b 475 1253 540 1226 514 1253 b 410 1190 438 1253 410 1226 b 475 1126 410 1153 438 1126 m 476 -17 b 92 350 249 -17 92 110 l 92 972 l 271 972 l 271 349 b 476 150 271 217 356 150 b 682 349 596 150 682 217 l 682 972 l 860 972 l 860 350 b 476 -17 860 110 704 -17 "},"Ũ":{"ha":951,"x_min":0,"x_max":0,"o":"m 499 1238 b 574 1204 531 1217 546 1204 b 628 1276 603 1204 622 1228 l 753 1257 b 574 1076 746 1147 675 1076 b 457 1113 529 1076 492 1090 b 382 1146 426 1132 410 1146 b 326 1075 351 1146 332 1124 l 203 1093 b 379 1274 210 1201 279 1274 b 499 1238 422 1274 461 1260 m 476 -17 b 92 350 249 -17 92 110 l 92 972 l 271 972 l 271 349 b 476 150 271 217 356 150 b 682 349 596 150 682 217 l 682 972 l 860 972 l 860 350 b 476 -17 860 110 704 -17 "},"V":{"ha":915,"x_min":0,"x_max":0,"o":"m 11 972 l 208 972 l 457 229 l 708 972 l 904 972 l 550 0 l 365 0 "},"W":{"ha":1393,"x_min":0,"x_max":0,"o":"m 17 972 l 217 972 l 404 225 l 594 854 l 797 854 l 988 226 l 1175 972 l 1376 972 l 1097 0 l 888 0 l 697 596 l 501 0 l 296 0 "},"Ẃ":{"ha":1393,"x_min":0,"x_max":0,"o":"m 704 1269 l 913 1269 l 744 1064 l 618 1064 m 17 972 l 217 972 l 404 225 l 594 854 l 797 854 l 988 226 l 1175 972 l 1376 972 l 1097 0 l 888 0 l 697 596 l 501 0 l 296 0 "},"Ŵ":{"ha":1393,"x_min":0,"x_max":0,"o":"m 772 1269 l 931 1064 l 800 1064 l 696 1169 l 592 1064 l 461 1064 l 618 1269 m 17 972 l 217 972 l 404 225 l 594 854 l 797 854 l 988 226 l 1175 972 l 1376 972 l 1097 0 l 888 0 l 697 596 l 501 0 l 296 0 "},"Ẅ":{"ha":1393,"x_min":0,"x_max":0,"o":"m 561 1085 b 461 1182 501 1085 461 1126 b 561 1279 461 1238 501 1279 b 663 1182 621 1279 663 1238 b 561 1085 663 1126 621 1085 m 829 1085 b 731 1182 772 1085 731 1126 b 829 1279 731 1238 772 1279 b 931 1182 889 1279 931 1238 b 829 1085 931 1126 889 1085 m 17 972 l 217 972 l 404 225 l 594 854 l 797 854 l 988 226 l 1175 972 l 1376 972 l 1097 0 l 888 0 l 697 596 l 501 0 l 296 0 "},"Ẁ":{"ha":1393,"x_min":0,"x_max":0,"o":"m 640 1064 l 472 1269 l 681 1269 l 767 1064 m 17 972 l 217 972 l 404 225 l 594 854 l 797 854 l 988 226 l 1175 972 l 1376 972 l 1097 0 l 888 0 l 697 596 l 501 0 l 296 0 "},"X":{"ha":864,"x_min":0,"x_max":0,"o":"m 636 0 l 429 349 l 218 0 l 17 1 l 328 503 l 38 972 l 250 972 l 426 669 l 610 972 l 817 972 l 529 517 l 849 0 "},"Y":{"ha":878,"x_min":0,"x_max":0,"o":"m 342 411 l 10 972 l 215 972 l 439 590 l 663 972 l 868 972 l 535 411 l 535 0 l 342 0 "},"Ý":{"ha":878,"x_min":0,"x_max":0,"o":"m 447 1269 l 656 1269 l 488 1064 l 361 1064 m 342 411 l 10 972 l 215 972 l 439 590 l 663 972 l 868 972 l 535 411 l 535 0 l 342 0 "},"Ŷ":{"ha":878,"x_min":0,"x_max":0,"o":"m 515 1269 l 674 1064 l 543 1064 l 439 1169 l 335 1064 l 204 1064 l 361 1269 m 342 411 l 10 972 l 215 972 l 439 590 l 663 972 l 868 972 l 535 411 l 535 0 l 342 0 "},"Ÿ":{"ha":878,"x_min":0,"x_max":0,"o":"m 304 1085 b 204 1182 244 1085 204 1126 b 304 1279 204 1238 244 1279 b 406 1182 364 1279 406 1238 b 304 1085 406 1126 364 1085 m 572 1085 b 474 1182 515 1085 474 1126 b 572 1279 474 1238 515 1279 b 674 1182 632 1279 674 1238 b 572 1085 674 1126 632 1085 m 342 411 l 10 972 l 215 972 l 439 590 l 663 972 l 868 972 l 535 411 l 535 0 l 342 0 "},"Ỳ":{"ha":878,"x_min":0,"x_max":0,"o":"m 383 1064 l 215 1269 l 424 1269 l 510 1064 m 342 411 l 10 972 l 215 972 l 439 590 l 663 972 l 868 972 l 535 411 l 535 0 l 342 0 "},"Z":{"ha":853,"x_min":0,"x_max":0,"o":"m 46 156 l 572 806 l 72 806 l 72 972 l 793 972 l 793 817 l 271 167 l 796 167 l 796 0 l 46 0 "},"Ź":{"ha":853,"x_min":0,"x_max":0,"o":"m 433 1269 l 642 1269 l 474 1064 l 347 1064 m 46 156 l 572 806 l 72 806 l 72 972 l 793 972 l 793 817 l 271 167 l 796 167 l 796 0 l 46 0 "},"Ž":{"ha":853,"x_min":0,"x_max":0,"o":"m 192 1269 l 322 1269 l 426 1163 l 531 1269 l 661 1269 l 503 1064 l 349 1064 m 46 156 l 572 806 l 72 806 l 72 972 l 793 972 l 793 817 l 271 167 l 796 167 l 796 0 l 46 0 "},"Ż":{"ha":853,"x_min":0,"x_max":0,"o":"m 425 1076 b 314 1188 363 1076 314 1126 b 425 1297 314 1249 363 1297 b 538 1188 489 1297 538 1249 b 425 1076 538 1126 489 1076 m 46 156 l 572 806 l 72 806 l 72 972 l 793 972 l 793 817 l 271 167 l 796 167 l 796 0 l 46 0 "},"a":{"ha":746,"x_min":0,"x_max":0,"o":"m 358 722 b 663 432 540 722 663 628 l 663 0 l 489 0 l 489 65 b 285 -17 449 21 371 -17 b 56 194 150 -17 56 74 b 363 432 56 335 158 411 l 489 446 l 489 460 b 356 588 489 540 436 588 b 224 468 288 588 231 553 l 61 468 b 358 722 76 650 221 722 m 326 118 b 489 213 386 118 450 154 l 489 317 l 367 303 b 228 203 271 292 228 254 b 326 118 228 154 264 118 "},"á":{"ha":746,"x_min":0,"x_max":0,"o":"m 411 797 l 285 797 l 371 1003 l 579 1003 m 358 722 b 663 432 540 722 663 628 l 663 0 l 489 0 l 489 65 b 285 -17 449 21 371 -17 b 56 194 150 -17 56 74 b 363 432 56 335 158 411 l 489 446 l 489 460 b 356 588 489 540 436 588 b 224 468 288 588 231 553 l 61 468 b 358 722 76 650 221 722 m 326 118 b 489 213 386 118 450 154 l 489 317 l 367 303 b 228 203 271 292 228 254 b 326 118 228 154 264 118 "},"ă":{"ha":746,"x_min":0,"x_max":0,"o":"m 363 793 b 169 982 251 793 169 874 l 301 982 b 363 910 301 938 325 910 b 426 982 401 910 426 938 l 557 982 b 363 793 557 874 475 793 m 358 722 b 663 432 540 722 663 628 l 663 0 l 489 0 l 489 65 b 285 -17 449 21 371 -17 b 56 194 150 -17 56 74 b 363 432 56 335 158 411 l 489 446 l 489 460 b 356 588 489 540 436 588 b 224 468 288 588 231 553 l 61 468 b 358 722 76 650 221 722 m 326 118 b 489 213 386 118 450 154 l 489 317 l 367 303 b 228 203 271 292 228 254 b 326 118 228 154 264 118 "},"â":{"ha":746,"x_min":0,"x_max":0,"o":"m 260 797 l 129 797 l 286 1003 l 440 1003 l 599 797 l 468 797 l 364 903 m 358 722 b 663 432 540 722 663 628 l 663 0 l 489 0 l 489 65 b 285 -17 449 21 371 -17 b 56 194 150 -17 56 74 b 363 432 56 335 158 411 l 489 446 l 489 460 b 356 588 489 540 436 588 b 224 468 288 588 231 553 l 61 468 b 358 722 76 650 221 722 m 326 118 b 489 213 386 118 450 154 l 489 317 l 367 303 b 228 203 271 292 228 254 b 326 118 228 154 264 118 "},"ä":{"ha":746,"x_min":0,"x_max":0,"o":"m 229 818 b 129 915 169 818 129 860 b 229 1013 129 971 169 1013 b 331 915 289 1013 331 971 b 229 818 331 860 289 818 m 497 818 b 399 915 440 818 399 860 b 497 1013 399 971 440 1013 b 599 915 557 1013 599 971 b 497 818 599 860 557 818 m 358 722 b 663 432 540 722 663 628 l 663 0 l 489 0 l 489 65 b 285 -17 449 21 371 -17 b 56 194 150 -17 56 74 b 363 432 56 335 158 411 l 489 446 l 489 460 b 356 588 489 540 436 588 b 224 468 288 588 231 553 l 61 468 b 358 722 76 650 221 722 m 326 118 b 489 213 386 118 450 154 l 489 317 l 367 303 b 228 203 271 292 228 254 b 326 118 228 154 264 118 "},"à":{"ha":746,"x_min":0,"x_max":0,"o":"m 308 797 l 140 1003 l 349 1003 l 435 797 m 358 722 b 663 432 540 722 663 628 l 663 0 l 489 0 l 489 65 b 285 -17 449 21 371 -17 b 56 194 150 -17 56 74 b 363 432 56 335 158 411 l 489 446 l 489 460 b 356 588 489 540 436 588 b 224 468 288 588 231 553 l 61 468 b 358 722 76 650 221 722 m 326 118 b 489 213 386 118 450 154 l 489 317 l 367 303 b 228 203 271 292 228 254 b 326 118 228 154 264 118 "},"ā":{"ha":746,"x_min":0,"x_max":0,"o":"m 557 833 l 171 833 l 171 965 l 557 965 m 358 722 b 663 432 540 722 663 628 l 663 0 l 489 0 l 489 65 b 285 -17 449 21 371 -17 b 56 194 150 -17 56 74 b 363 432 56 335 158 411 l 489 446 l 489 460 b 356 588 489 540 436 588 b 224 468 288 588 231 553 l 61 468 b 358 722 76 650 221 722 m 326 118 b 489 213 386 118 450 154 l 489 317 l 367 303 b 228 203 271 292 228 254 b 326 118 228 154 264 118 "},"ą":{"ha":746,"x_min":0,"x_max":0,"o":"m 721 -254 b 644 -264 708 -258 676 -264 b 478 -122 544 -264 478 -207 b 531 0 478 -82 499 -35 l 489 0 l 489 65 b 285 -17 449 21 371 -17 b 56 194 150 -17 56 74 b 363 432 56 335 158 411 l 489 446 l 489 460 b 356 588 489 540 436 588 b 224 468 288 588 231 553 l 61 468 b 358 722 76 650 221 722 b 663 432 540 722 663 628 l 663 0 b 615 -87 640 -22 615 -51 b 672 -142 615 -122 639 -142 b 704 -137 688 -142 699 -139 m 326 118 b 489 213 386 118 450 154 l 489 317 l 367 303 b 228 203 271 292 228 254 b 326 118 228 154 264 118 "},"å":{"ha":746,"x_min":0,"x_max":0,"o":"m 364 769 b 201 924 271 769 201 836 b 364 1076 201 1011 271 1076 b 526 924 458 1076 526 1011 b 364 769 526 836 458 769 m 364 986 b 299 924 326 986 299 960 b 364 860 299 886 326 860 b 429 924 403 860 429 886 b 364 986 429 960 403 986 m 358 722 b 663 432 540 722 663 628 l 663 0 l 489 0 l 489 65 b 285 -17 449 21 371 -17 b 56 194 150 -17 56 74 b 363 432 56 335 158 411 l 489 446 l 489 460 b 356 588 489 540 436 588 b 224 468 288 588 231 553 l 61 468 b 358 722 76 650 221 722 m 326 118 b 489 213 386 118 450 154 l 489 317 l 367 303 b 228 203 271 292 228 254 b 326 118 228 154 264 118 "},"ǻ":{"ha":746,"x_min":0,"x_max":0,"o":"m 364 769 b 201 924 271 769 201 836 b 304 1067 201 990 243 1044 l 385 1260 l 593 1260 l 432 1064 b 526 924 490 1040 526 988 b 364 769 526 836 458 769 m 364 986 b 299 924 326 986 299 960 b 364 860 299 886 326 860 b 429 924 403 860 429 886 b 364 986 429 960 403 986 m 358 722 b 663 432 540 722 663 628 l 663 0 l 489 0 l 489 65 b 285 -17 449 21 371 -17 b 56 194 150 -17 56 74 b 363 432 56 335 158 411 l 489 446 l 489 460 b 356 588 489 540 436 588 b 224 468 288 588 231 553 l 61 468 b 358 722 76 650 221 722 m 326 118 b 489 213 386 118 450 154 l 489 317 l 367 303 b 228 203 271 292 228 254 b 326 118 228 154 264 118 "},"ã":{"ha":746,"x_min":0,"x_max":0,"o":"m 269 879 b 214 808 239 879 219 857 l 90 826 b 267 1007 97 935 167 1007 b 386 971 310 1007 349 993 b 461 938 418 950 433 938 b 515 1010 490 938 510 961 l 640 990 b 461 810 633 881 563 810 b 344 846 417 810 379 824 b 269 879 314 865 297 879 m 358 722 b 663 432 540 722 663 628 l 663 0 l 489 0 l 489 65 b 285 -17 449 21 371 -17 b 56 194 150 -17 56 74 b 363 432 56 335 158 411 l 489 446 l 489 460 b 356 588 489 540 436 588 b 224 468 288 588 231 553 l 61 468 b 358 722 76 650 221 722 m 326 118 b 489 213 386 118 450 154 l 489 317 l 367 303 b 228 203 271 292 228 254 b 326 118 228 154 264 118 "},"æ":{"ha":1231,"x_min":0,"x_max":0,"o":"m 1178 375 b 1175 306 1178 350 1176 319 l 675 306 b 853 131 692 194 763 131 b 1010 233 921 131 975 169 l 1168 167 b 849 -17 1106 50 992 -17 b 568 119 721 -17 626 38 b 304 -17 506 31 408 -17 b 56 197 140 -17 56 75 b 363 429 56 336 157 411 l 489 440 l 489 460 b 356 589 489 540 436 589 b 224 468 288 589 231 553 l 61 468 b 356 722 76 650 217 722 b 600 626 460 722 546 690 b 838 722 656 685 735 722 b 1178 375 1072 722 1178 543 m 988 436 b 833 588 981 522 928 588 b 679 436 757 588 699 535 m 326 118 b 513 242 381 118 450 147 b 500 313 507 265 503 289 l 367 299 b 228 204 272 290 228 256 b 326 118 228 156 265 118 "},"ǽ":{"ha":1231,"x_min":0,"x_max":0,"o":"m 699 808 l 572 808 l 658 1014 l 867 1014 m 1178 375 b 1175 306 1178 350 1176 319 l 675 306 b 853 131 692 194 763 131 b 1010 233 921 131 975 169 l 1168 167 b 849 -17 1106 50 992 -17 b 568 119 721 -17 626 38 b 304 -17 506 31 408 -17 b 56 197 140 -17 56 75 b 363 429 56 336 157 411 l 489 440 l 489 460 b 356 589 489 540 436 589 b 224 468 288 589 231 553 l 61 468 b 356 722 76 650 217 722 b 600 626 460 722 546 690 b 838 722 656 685 735 722 b 1178 375 1072 722 1178 543 m 988 436 b 833 588 981 522 928 588 b 679 436 757 588 699 535 m 326 118 b 513 242 381 118 450 147 b 500 313 507 265 503 289 l 367 299 b 228 204 272 290 228 256 b 326 118 228 156 265 118 "},"b":{"ha":828,"x_min":0,"x_max":0,"o":"m 454 722 b 774 353 651 722 774 568 b 454 -17 774 139 651 -17 b 261 58 382 -17 306 14 l 261 0 l 83 0 l 83 972 l 261 972 l 261 647 b 454 722 306 692 382 722 m 422 139 b 594 353 525 139 594 224 b 422 567 594 481 525 567 b 261 481 361 567 299 533 l 261 225 b 422 139 299 172 360 139 "},"c":{"ha":781,"x_min":0,"x_max":0,"o":"m 399 -17 b 53 353 194 -17 53 133 b 399 722 53 571 194 722 b 722 474 575 722 699 628 l 550 440 b 404 568 539 515 481 568 b 235 353 303 568 235 483 b 404 136 235 222 303 136 b 549 260 481 136 535 183 l 721 225 b 399 -17 696 74 572 -17 "},"ć":{"ha":781,"x_min":0,"x_max":0,"o":"m 401 1003 l 610 1003 l 442 797 l 315 797 m 399 -17 b 53 353 194 -17 53 133 b 399 722 53 571 194 722 b 722 474 575 722 699 628 l 550 440 b 404 568 539 515 481 568 b 235 353 303 568 235 483 b 404 136 235 222 303 136 b 549 260 481 136 535 183 l 721 225 b 399 -17 696 74 572 -17 "},"č":{"ha":781,"x_min":0,"x_max":0,"o":"m 160 1003 l 290 1003 l 394 896 l 499 1003 l 629 1003 l 471 797 l 317 797 m 399 -17 b 53 353 194 -17 53 133 b 399 722 53 571 194 722 b 722 474 575 722 699 628 l 550 440 b 404 568 539 515 481 568 b 235 353 303 568 235 483 b 404 136 235 222 303 136 b 549 260 481 136 535 183 l 721 225 b 399 -17 696 74 572 -17 "},"ç":{"ha":781,"x_min":0,"x_max":0,"o":"m 404 136 b 549 260 481 136 535 183 l 721 225 b 474 -11 700 96 607 11 l 389 -206 l 181 -206 l 338 -12 b 53 353 167 15 53 156 b 399 722 53 571 194 722 b 722 474 575 722 699 628 l 550 440 b 404 568 539 515 481 568 b 235 353 303 568 235 483 b 404 136 235 222 303 136 "},"ĉ":{"ha":781,"x_min":0,"x_max":0,"o":"m 471 1003 l 629 797 l 499 797 l 394 903 l 290 797 l 160 797 l 317 1003 m 399 -17 b 53 353 194 -17 53 133 b 399 722 53 571 194 722 b 722 474 575 722 699 628 l 550 440 b 404 568 539 515 481 568 b 235 353 303 568 235 483 b 404 136 235 222 303 136 b 549 260 481 136 535 183 l 721 225 b 399 -17 696 74 572 -17 "},"ċ":{"ha":781,"x_min":0,"x_max":0,"o":"m 394 810 b 283 921 332 810 283 860 b 394 1031 283 982 332 1031 b 507 921 458 1031 507 982 b 394 810 507 860 458 810 m 399 -17 b 53 353 194 -17 53 133 b 399 722 53 571 194 722 b 722 474 575 722 699 628 l 550 440 b 404 568 539 515 481 568 b 235 353 303 568 235 483 b 404 136 235 222 303 136 b 549 260 481 136 535 183 l 721 225 b 399 -17 696 74 572 -17 "},"d":{"ha":826,"x_min":0,"x_max":0,"o":"m 744 972 l 744 0 l 565 0 l 565 58 b 372 -17 522 14 446 -17 b 53 353 176 -17 53 139 b 372 722 53 568 176 722 b 565 647 446 722 522 692 l 565 972 m 404 139 b 565 225 467 139 529 172 l 565 481 b 404 567 529 533 467 567 b 233 353 301 567 233 481 b 404 139 233 224 303 139 "},"ð":{"ha":835,"x_min":0,"x_max":0,"o":"m 849 785 l 743 785 l 743 415 b 403 -17 743 144 631 -17 b 53 350 188 -17 53 136 b 371 722 53 565 175 722 b 565 647 444 722 522 692 l 565 785 l 411 785 l 411 907 l 565 907 l 565 972 l 743 972 l 743 907 l 849 907 m 567 479 b 403 567 531 532 467 567 b 233 350 300 567 233 479 b 406 139 233 222 306 139 b 567 367 499 139 567 210 "},"ď":{"ha":967,"x_min":0,"x_max":0,"o":"m 1013 1056 l 901 797 l 797 797 l 840 1056 m 565 972 l 744 972 l 744 0 l 565 0 l 565 58 b 372 -17 522 14 446 -17 b 53 353 176 -17 53 139 b 372 722 53 568 176 722 b 565 647 446 722 522 692 m 404 139 b 565 225 467 139 529 172 l 565 481 b 404 567 529 533 467 567 b 233 353 301 567 233 481 b 404 139 233 224 303 139 "},"đ":{"ha":826,"x_min":0,"x_max":0,"o":"m 840 785 l 744 785 l 744 0 l 565 0 l 565 58 b 372 -17 522 14 446 -17 b 53 353 176 -17 53 139 b 372 722 53 568 176 722 b 565 647 446 722 522 692 l 565 785 l 403 785 l 403 907 l 565 907 l 565 972 l 744 972 l 744 907 l 840 907 m 404 139 b 565 225 467 139 529 172 l 565 481 b 404 567 529 533 467 567 b 233 353 301 567 233 481 b 404 139 233 224 303 139 "},"e":{"ha":785,"x_min":0,"x_max":0,"o":"m 732 375 b 729 306 732 350 731 319 l 229 306 b 407 131 246 194 317 131 b 564 233 475 131 529 169 l 722 167 b 403 -17 660 50 546 -17 b 53 353 172 -17 53 158 b 392 722 53 539 164 722 b 732 375 626 722 732 543 m 542 436 b 388 588 535 522 482 588 b 233 436 311 588 253 535 "},"é":{"ha":785,"x_min":0,"x_max":0,"o":"m 440 797 l 314 797 l 400 1003 l 608 1003 m 732 375 b 729 306 732 350 731 319 l 229 306 b 407 131 246 194 317 131 b 564 233 475 131 529 169 l 722 167 b 403 -17 660 50 546 -17 b 53 353 172 -17 53 158 b 392 722 53 539 164 722 b 732 375 626 722 732 543 m 542 436 b 388 588 535 522 482 588 b 233 436 311 588 253 535 "},"ĕ":{"ha":785,"x_min":0,"x_max":0,"o":"m 392 793 b 199 982 281 793 199 874 l 331 982 b 392 910 331 938 354 910 b 456 982 431 910 456 938 l 586 982 b 392 793 586 874 504 793 m 732 375 b 729 306 732 350 731 319 l 229 306 b 407 131 246 194 317 131 b 564 233 475 131 529 169 l 722 167 b 403 -17 660 50 546 -17 b 53 353 172 -17 53 158 b 392 722 53 539 164 722 b 732 375 626 722 732 543 m 542 436 b 388 588 535 522 482 588 b 233 436 311 588 253 535 "},"ě":{"ha":785,"x_min":0,"x_max":0,"o":"m 315 797 l 158 1003 l 289 1003 l 393 896 l 497 1003 l 628 1003 l 469 797 m 732 375 b 729 306 732 350 731 319 l 229 306 b 407 131 246 194 317 131 b 564 233 475 131 529 169 l 722 167 b 403 -17 660 50 546 -17 b 53 353 172 -17 53 158 b 392 722 53 539 164 722 b 732 375 626 722 732 543 m 542 436 b 388 588 535 522 482 588 b 233 436 311 588 253 535 "},"ê":{"ha":785,"x_min":0,"x_max":0,"o":"m 289 797 l 158 797 l 315 1003 l 469 1003 l 628 797 l 497 797 l 393 903 m 732 375 b 729 306 732 350 731 319 l 229 306 b 407 131 246 194 317 131 b 564 233 475 131 529 169 l 722 167 b 403 -17 660 50 546 -17 b 53 353 172 -17 53 158 b 392 722 53 539 164 722 b 732 375 626 722 732 543 m 542 436 b 388 588 535 522 482 588 b 233 436 311 588 253 535 "},"ë":{"ha":785,"x_min":0,"x_max":0,"o":"m 258 818 b 158 915 199 818 158 860 b 258 1013 158 971 199 1013 b 360 915 318 1013 360 971 b 258 818 360 860 318 818 m 526 818 b 428 915 469 818 428 860 b 526 1013 428 971 469 1013 b 628 915 586 1013 628 971 b 526 818 628 860 586 818 m 732 375 b 729 306 732 350 731 319 l 229 306 b 407 131 246 194 317 131 b 564 233 475 131 529 169 l 722 167 b 403 -17 660 50 546 -17 b 53 353 172 -17 53 158 b 392 722 53 539 164 722 b 732 375 626 722 732 543 m 542 436 b 388 588 535 522 482 588 b 233 436 311 588 253 535 "},"ė":{"ha":785,"x_min":0,"x_max":0,"o":"m 393 810 b 282 921 331 810 282 860 b 393 1031 282 982 331 1031 b 506 921 457 1031 506 982 b 393 810 506 860 457 810 m 732 375 b 729 306 732 350 731 319 l 229 306 b 407 131 246 194 317 131 b 564 233 475 131 529 169 l 722 167 b 403 -17 660 50 546 -17 b 53 353 172 -17 53 158 b 392 722 53 539 164 722 b 732 375 626 722 732 543 m 542 436 b 388 588 535 522 482 588 b 233 436 311 588 253 535 "},"è":{"ha":785,"x_min":0,"x_max":0,"o":"m 338 797 l 169 1003 l 378 1003 l 464 797 m 732 375 b 729 306 732 350 731 319 l 229 306 b 407 131 246 194 317 131 b 564 233 475 131 529 169 l 722 167 b 403 -17 660 50 546 -17 b 53 353 172 -17 53 158 b 392 722 53 539 164 722 b 732 375 626 722 732 543 m 542 436 b 388 588 535 522 482 588 b 233 436 311 588 253 535 "},"ē":{"ha":785,"x_min":0,"x_max":0,"o":"m 586 833 l 200 833 l 200 965 l 586 965 m 732 375 b 729 306 732 350 731 319 l 229 306 b 407 131 246 194 317 131 b 564 233 475 131 529 169 l 722 167 b 403 -17 660 50 546 -17 b 53 353 172 -17 53 158 b 392 722 53 539 164 722 b 732 375 626 722 732 543 m 542 436 b 388 588 535 522 482 588 b 233 436 311 588 253 535 "},"ę":{"ha":785,"x_min":0,"x_max":0,"o":"m 732 375 b 729 306 732 350 731 319 l 229 306 b 407 131 246 194 317 131 b 564 233 475 131 529 169 l 722 167 b 485 -8 672 74 589 11 b 446 -87 465 -29 446 -56 b 503 -142 446 -122 469 -142 b 535 -137 518 -142 529 -139 l 551 -254 b 475 -264 539 -258 507 -264 b 308 -122 375 -264 308 -207 b 350 -14 308 -86 325 -46 b 53 353 154 11 53 174 b 392 722 53 539 164 722 b 732 375 626 722 732 543 m 542 436 b 388 588 535 522 482 588 b 233 436 311 588 253 535 "},"f":{"ha":517,"x_min":0,"x_max":0,"o":"m 140 556 l 28 556 l 28 706 l 140 706 l 140 757 b 390 1003 140 924 246 1003 l 476 1003 l 476 856 l 417 856 b 318 757 360 856 318 824 l 318 706 l 476 706 l 476 556 l 318 556 l 318 0 l 140 0 "},"g":{"ha":725,"x_min":0,"x_max":0,"o":"m 447 146 b 697 -46 610 139 697 83 b 364 -262 697 -201 551 -262 b 22 -61 158 -262 22 -199 b 93 76 22 -11 51 42 b 44 175 63 100 44 133 b 149 315 44 240 86 289 b 83 478 107 357 83 413 b 363 719 83 624 199 719 b 508 689 417 719 467 708 l 606 794 l 708 699 l 613 596 b 644 478 633 563 644 522 b 363 238 644 332 529 238 b 261 251 326 238 292 242 b 217 196 231 236 217 217 b 283 154 217 164 244 157 l 447 146 m 363 589 b 244 481 296 589 244 547 b 363 374 244 414 296 374 b 482 481 429 374 482 414 b 363 589 482 547 429 589 m 364 -121 b 528 -49 486 -121 528 -94 b 418 11 528 3 482 8 l 288 18 b 225 25 265 19 244 21 b 192 -49 200 0 192 -22 b 364 -121 192 -96 238 -121 "},"ğ":{"ha":725,"x_min":0,"x_max":0,"o":"m 360 793 b 167 982 249 793 167 874 l 299 982 b 360 910 299 938 322 910 b 424 982 399 910 424 938 l 554 982 b 360 793 554 874 472 793 m 447 146 b 697 -46 610 139 697 83 b 364 -262 697 -201 551 -262 b 22 -61 158 -262 22 -199 b 93 76 22 -11 51 42 b 44 175 63 100 44 133 b 149 315 44 240 86 289 b 83 478 107 357 83 413 b 363 719 83 624 199 719 b 508 689 417 719 467 708 l 606 794 l 708 699 l 613 596 b 644 478 633 563 644 522 b 363 238 644 332 529 238 b 261 251 326 238 292 242 b 217 196 231 236 217 217 b 283 154 217 164 244 157 l 447 146 m 363 589 b 244 481 296 589 244 547 b 363 374 244 414 296 374 b 482 481 429 374 482 414 b 363 589 482 547 429 589 m 364 -121 b 528 -49 486 -121 528 -94 b 418 11 528 3 482 8 l 288 18 b 225 25 265 19 244 21 b 192 -49 200 0 192 -22 b 364 -121 192 -96 238 -121 "},"ĝ":{"ha":725,"x_min":0,"x_max":0,"o":"m 224 808 l 93 808 l 250 1014 l 404 1014 l 563 808 l 432 808 l 328 915 m 447 146 b 697 -46 610 139 697 83 b 364 -262 697 -201 551 -262 b 22 -61 158 -262 22 -199 b 93 76 22 -11 51 42 b 44 175 63 100 44 133 b 149 315 44 240 86 289 b 83 478 107 357 83 413 b 363 719 83 624 199 719 b 508 689 417 719 467 708 l 606 794 l 708 699 l 613 596 b 644 478 633 563 644 522 b 363 238 644 332 529 238 b 261 251 326 238 292 242 b 217 196 231 236 217 217 b 283 154 217 164 244 157 l 447 146 m 363 589 b 244 481 296 589 244 547 b 363 374 244 414 296 374 b 482 481 429 374 482 414 b 363 589 482 547 429 589 m 364 -121 b 528 -49 486 -121 528 -94 b 418 11 528 3 482 8 l 288 18 b 225 25 265 19 244 21 b 192 -49 200 0 192 -22 b 364 -121 192 -96 238 -121 "},"ģ":{"ha":725,"x_min":0,"x_max":0,"o":"m 438 797 l 249 797 l 336 1003 l 474 1003 m 447 146 b 697 -46 610 139 697 83 b 364 -262 697 -201 551 -262 b 22 -61 158 -262 22 -199 b 93 76 22 -11 51 42 b 44 175 63 100 44 133 b 149 315 44 240 86 289 b 83 478 107 357 83 413 b 363 719 83 624 199 719 b 508 689 417 719 467 708 l 606 794 l 708 699 l 613 596 b 644 478 633 563 644 522 b 363 238 644 332 529 238 b 261 251 326 238 292 242 b 217 196 231 236 217 217 b 283 154 217 164 244 157 l 447 146 m 363 589 b 244 481 296 589 244 547 b 363 374 244 414 296 374 b 482 481 429 374 482 414 b 363 589 482 547 429 589 m 364 -121 b 528 -49 486 -121 528 -94 b 418 11 528 3 482 8 l 288 18 b 225 25 265 19 244 21 b 192 -49 200 0 192 -22 b 364 -121 192 -96 238 -121 "},"ġ":{"ha":725,"x_min":0,"x_max":0,"o":"m 361 810 b 250 921 299 810 250 860 b 361 1031 250 982 299 1031 b 474 921 425 1031 474 982 b 361 810 474 860 425 810 m 447 146 b 697 -46 610 139 697 83 b 364 -262 697 -201 551 -262 b 22 -61 158 -262 22 -199 b 93 76 22 -11 51 42 b 44 175 63 100 44 133 b 149 315 44 240 86 289 b 83 478 107 357 83 413 b 363 719 83 624 199 719 b 508 689 417 719 467 708 l 606 794 l 708 699 l 613 596 b 644 478 633 563 644 522 b 363 238 644 332 529 238 b 261 251 326 238 292 242 b 217 196 231 236 217 217 b 283 154 217 164 244 157 l 447 146 m 363 589 b 244 481 296 589 244 547 b 363 374 244 414 296 374 b 482 481 429 374 482 414 b 363 589 482 547 429 589 m 364 -121 b 528 -49 486 -121 528 -94 b 418 11 528 3 482 8 l 288 18 b 225 25 265 19 244 21 b 192 -49 200 0 192 -22 b 364 -121 192 -96 238 -121 "},"h":{"ha":825,"x_min":0,"x_max":0,"o":"m 478 722 b 743 463 635 722 743 618 l 743 0 l 564 0 l 564 425 b 428 569 564 511 513 569 b 261 478 363 569 301 538 l 261 0 l 83 0 l 83 972 l 261 972 l 261 642 b 478 722 307 692 389 722 "},"ħ":{"ha":825,"x_min":0,"x_max":0,"o":"m 478 722 b 743 463 635 722 743 618 l 743 0 l 564 0 l 564 425 b 428 569 564 511 513 569 b 261 478 363 569 301 538 l 261 0 l 83 0 l 83 778 l -15 778 l -15 900 l 83 900 l 83 972 l 261 972 l 261 900 l 424 900 l 424 778 l 261 778 l 261 642 b 478 722 307 692 389 722 "},"ĥ":{"ha":825,"x_min":0,"x_max":0,"o":"m 179 1193 l 75 1088 l -56 1088 l 101 1293 l 256 1293 l 414 1088 l 283 1088 m 478 722 b 743 463 635 722 743 618 l 743 0 l 564 0 l 564 425 b 428 569 564 511 513 569 b 261 478 363 569 301 538 l 261 0 l 83 0 l 83 972 l 261 972 l 261 642 b 478 722 307 692 389 722 "},"i":{"ha":344,"x_min":0,"x_max":0,"o":"m 171 810 b 60 921 108 810 60 860 b 171 1031 60 982 108 1031 b 283 921 235 1031 283 982 b 171 810 283 860 235 810 m 83 706 l 261 706 l 261 0 l 83 0 "},"ı":{"ha":344,"x_min":0,"x_max":0,"o":"m 83 706 l 261 706 l 261 0 l 83 0 "},"í":{"ha":344,"x_min":0,"x_max":0,"o":"m 179 1003 l 388 1003 l 219 797 l 93 797 m 83 706 l 261 706 l 261 0 l 83 0 "},"ĭ":{"ha":344,"x_min":0,"x_max":0,"o":"m 171 793 b -22 982 60 793 -22 874 l 110 982 b 171 910 110 938 133 910 b 235 982 210 910 235 938 l 365 982 b 171 793 365 874 283 793 m 83 706 l 261 706 l 261 0 l 83 0 "},"î":{"ha":344,"x_min":0,"x_max":0,"o":"m 249 1003 l 407 797 l 276 797 l 172 903 l 68 797 l -62 797 l 94 1003 m 83 706 l 261 706 l 261 0 l 83 0 "},"ï":{"ha":344,"x_min":0,"x_max":0,"o":"m 38 818 b -62 915 -22 818 -62 860 b 38 1013 -62 971 -22 1013 b 139 915 97 1013 139 971 b 38 818 139 860 97 818 m 306 818 b 207 915 249 818 207 860 b 306 1013 207 971 249 1013 b 407 915 365 1013 407 971 b 306 818 407 860 365 818 m 83 706 l 261 706 l 261 0 l 83 0 "},"ì":{"ha":344,"x_min":0,"x_max":0,"o":"m 117 797 l -51 1003 l 157 1003 l 243 797 m 83 706 l 261 706 l 261 0 l 83 0 "},"ī":{"ha":344,"x_min":0,"x_max":0,"o":"m -21 965 l 365 965 l 365 833 l -21 833 m 83 706 l 261 706 l 261 0 l 83 0 "},"į":{"ha":344,"x_min":0,"x_max":0,"o":"m 171 810 b 60 921 108 810 60 860 b 171 1031 60 982 108 1031 b 283 921 235 1031 283 982 b 171 810 283 860 235 810 m 319 -254 b 243 -264 307 -258 275 -264 b 76 -122 143 -264 76 -207 b 129 0 76 -82 97 -35 l 83 0 l 83 706 l 261 706 l 261 0 b 214 -87 239 -22 214 -51 b 271 -142 214 -122 238 -142 b 303 -137 286 -142 297 -139 "},"ĩ":{"ha":344,"x_min":0,"x_max":0,"o":"m 196 971 b 271 938 228 950 243 938 b 325 1010 300 938 319 961 l 450 990 b 271 810 443 881 372 810 b 154 846 226 810 189 824 b 79 879 124 865 107 879 b 24 808 49 879 29 857 l -100 826 b 76 1007 -93 935 -24 1007 b 196 971 119 1007 158 993 m 83 706 l 261 706 l 261 0 l 83 0 "},"j":{"ha":344,"x_min":0,"x_max":0,"o":"m 171 810 b 60 921 108 810 60 860 b 171 1031 60 982 108 1031 b 283 921 235 1031 283 982 b 171 810 283 860 235 810 m 0 -267 b -42 -264 -12 -267 -40 -264 l -42 -110 b -21 -111 -40 -111 -39 -111 b 83 14 49 -111 83 -69 l 83 706 l 261 706 l 261 -11 b 0 -267 261 -169 158 -267 "},"ȷ":{"ha":344,"x_min":0,"x_max":0,"o":"m 0 -267 b -42 -264 -12 -267 -40 -264 l -42 -110 b -21 -111 -40 -111 -39 -111 b 83 14 49 -111 83 -69 l 83 706 l 261 706 l 261 -11 b 0 -267 261 -169 158 -267 "},"ĵ":{"ha":344,"x_min":0,"x_max":0,"o":"m 249 1003 l 407 797 l 276 797 l 172 903 l 68 797 l -62 797 l 94 1003 m 0 -267 b -42 -264 -12 -267 -40 -264 l -42 -110 b -21 -111 -40 -111 -39 -111 b 83 14 49 -111 83 -69 l 83 706 l 261 706 l 261 -11 b 0 -267 261 -169 158 -267 "},"k":{"ha":807,"x_min":0,"x_max":0,"o":"m 307 318 l 261 318 l 261 0 l 83 0 l 83 972 l 261 972 l 261 468 l 306 468 l 540 706 l 764 706 l 460 392 l 790 0 l 569 0 "},"ķ":{"ha":807,"x_min":0,"x_max":0,"o":"m 790 0 l 569 0 l 307 318 l 261 318 l 261 0 l 83 0 l 83 972 l 261 972 l 261 468 l 306 468 l 540 706 l 764 706 l 460 392 m 294 -58 l 489 -58 l 367 -264 l 240 -264 "},"ĸ":{"ha":807,"x_min":0,"x_max":0,"o":"m 308 308 l 263 308 l 263 0 l 83 0 l 83 706 l 263 706 l 263 458 l 304 458 l 540 706 l 765 706 l 460 383 l 790 0 l 569 0 "},"l":{"ha":344,"x_min":0,"x_max":0,"o":"m 83 972 l 261 972 l 261 0 l 83 0 "},"ĺ":{"ha":344,"x_min":0,"x_max":0,"o":"m 179 1269 l 388 1269 l 219 1064 l 93 1064 m 83 972 l 261 972 l 261 0 l 83 0 "},"ľ":{"ha":489,"x_min":0,"x_max":0,"o":"m 363 1068 l 535 1068 l 424 808 l 319 808 m 83 972 l 261 972 l 261 0 l 83 0 "},"ļ":{"ha":344,"x_min":0,"x_max":0,"o":"m 83 972 l 261 972 l 261 0 l 83 0 m 83 -58 l 278 -58 l 156 -264 l 29 -264 "},"ŀ":{"ha":535,"x_min":0,"x_max":0,"o":"m 83 972 l 261 972 l 261 0 l 83 0 m 440 378 b 329 488 376 378 329 424 b 440 597 329 550 376 597 b 551 488 504 597 551 550 b 440 378 551 424 504 378 "},"ł":{"ha":438,"x_min":0,"x_max":0,"o":"m 431 543 l 308 485 l 308 0 l 131 0 l 131 401 l 6 342 l 6 492 l 131 551 l 131 972 l 308 972 l 308 635 l 431 693 "},"m":{"ha":1238,"x_min":0,"x_max":0,"o":"m 906 722 b 1154 463 1053 722 1154 618 l 1154 0 l 976 0 l 976 425 b 854 569 976 511 929 569 b 708 479 799 569 743 538 l 708 463 l 708 0 l 529 0 l 529 425 b 408 569 529 511 483 569 b 261 479 351 569 297 538 l 261 0 l 83 0 l 83 706 l 261 706 l 261 643 b 460 722 303 692 379 722 b 668 614 550 722 625 682 b 906 722 718 681 811 722 "},"n":{"ha":825,"x_min":0,"x_max":0,"o":"m 478 722 b 743 463 635 722 743 618 l 743 0 l 564 0 l 564 425 b 428 569 564 511 513 569 b 261 478 363 569 301 538 l 261 0 l 83 0 l 83 706 l 261 706 l 261 642 b 478 722 307 692 389 722 "},"ń":{"ha":825,"x_min":0,"x_max":0,"o":"m 457 797 l 331 797 l 417 1003 l 625 1003 m 478 722 b 743 463 635 722 743 618 l 743 0 l 564 0 l 564 425 b 428 569 564 511 513 569 b 261 478 363 569 301 538 l 261 0 l 83 0 l 83 706 l 261 706 l 261 642 b 478 722 307 692 389 722 "},"ŉ":{"ha":825,"x_min":0,"x_max":0,"o":"m 208 808 l 106 808 l 149 1068 l 321 1068 m 478 722 b 743 463 635 722 743 618 l 743 0 l 564 0 l 564 425 b 428 569 564 511 513 569 b 261 478 363 569 301 538 l 261 0 l 83 0 l 83 706 l 261 706 l 261 642 b 478 722 307 692 389 722 "},"ň":{"ha":825,"x_min":0,"x_max":0,"o":"m 332 797 l 175 1003 l 306 1003 l 410 896 l 514 1003 l 644 1003 l 486 797 m 478 722 b 743 463 635 722 743 618 l 743 0 l 564 0 l 564 425 b 428 569 564 511 513 569 b 261 478 363 569 301 538 l 261 0 l 83 0 l 83 706 l 261 706 l 261 642 b 478 722 307 692 389 722 "},"ņ":{"ha":825,"x_min":0,"x_max":0,"o":"m 478 722 b 743 463 635 722 743 618 l 743 0 l 564 0 l 564 425 b 428 569 564 511 513 569 b 261 478 363 569 301 538 l 261 0 l 83 0 l 83 706 l 261 706 l 261 642 b 478 722 307 692 389 722 m 329 -58 l 524 -58 l 401 -264 l 275 -264 "},"ŋ":{"ha":825,"x_min":0,"x_max":0,"o":"m 743 0 l 742 0 l 742 -31 b 460 -267 742 -174 629 -267 b 432 -265 450 -267 440 -267 l 431 -111 b 454 -112 438 -112 447 -112 b 564 21 531 -112 564 -76 l 564 425 b 428 569 564 511 513 569 b 261 478 363 569 301 538 l 261 0 l 83 0 l 83 706 l 261 706 l 261 642 b 478 722 307 692 389 722 b 743 463 635 722 743 618 "},"ñ":{"ha":825,"x_min":0,"x_max":0,"o":"m 315 879 b 260 808 285 879 265 857 l 136 826 b 313 1007 143 935 213 1007 b 432 971 356 1007 394 993 b 507 938 464 950 479 938 b 561 1010 536 938 556 961 l 686 990 b 507 810 679 881 608 810 b 390 846 463 810 425 824 b 315 879 360 865 343 879 m 478 722 b 743 463 635 722 743 618 l 743 0 l 564 0 l 564 425 b 428 569 564 511 513 569 b 261 478 363 569 301 538 l 261 0 l 83 0 l 83 706 l 261 706 l 261 642 b 478 722 307 692 389 722 "},"o":{"ha":818,"x_min":0,"x_max":0,"o":"m 408 -17 b 53 353 201 -17 53 139 b 408 722 53 567 201 722 b 765 353 615 722 765 567 b 408 -17 765 139 615 -17 m 408 138 b 586 353 514 138 586 225 b 408 569 586 481 514 569 b 232 353 303 569 232 481 b 408 138 232 225 303 138 "},"ó":{"ha":818,"x_min":0,"x_max":0,"o":"m 417 1003 l 625 1003 l 457 797 l 331 797 m 408 -17 b 53 353 201 -17 53 139 b 408 722 53 567 201 722 b 765 353 615 722 765 567 b 408 -17 765 139 615 -17 m 408 138 b 586 353 514 138 586 225 b 408 569 586 481 514 569 b 232 353 303 569 232 481 b 408 138 232 225 303 138 "},"ŏ":{"ha":818,"x_min":0,"x_max":0,"o":"m 408 793 b 215 982 297 793 215 874 l 347 982 b 408 910 347 938 371 910 b 472 982 447 910 472 938 l 603 982 b 408 793 603 874 521 793 m 408 -17 b 53 353 201 -17 53 139 b 408 722 53 567 201 722 b 765 353 615 722 765 567 b 408 -17 765 139 615 -17 m 408 138 b 586 353 514 138 586 225 b 408 569 586 481 514 569 b 232 353 303 569 232 481 b 408 138 232 225 303 138 "},"ô":{"ha":818,"x_min":0,"x_max":0,"o":"m 486 1003 l 644 797 l 514 797 l 410 903 l 306 797 l 175 797 l 332 1003 m 408 -17 b 53 353 201 -17 53 139 b 408 722 53 567 201 722 b 765 353 615 722 765 567 b 408 -17 765 139 615 -17 m 408 138 b 586 353 514 138 586 225 b 408 569 586 481 514 569 b 232 353 303 569 232 481 b 408 138 232 225 303 138 "},"ö":{"ha":818,"x_min":0,"x_max":0,"o":"m 275 818 b 175 915 215 818 175 860 b 275 1013 175 971 215 1013 b 376 915 335 1013 376 971 b 275 818 376 860 335 818 m 543 818 b 444 915 486 818 444 860 b 543 1013 444 971 486 1013 b 644 915 603 1013 644 971 b 543 818 644 860 603 818 m 408 -17 b 53 353 201 -17 53 139 b 408 722 53 567 201 722 b 765 353 615 722 765 567 b 408 -17 765 139 615 -17 m 408 138 b 586 353 514 138 586 225 b 408 569 586 481 514 569 b 232 353 303 569 232 481 b 408 138 232 225 303 138 "},"ò":{"ha":818,"x_min":0,"x_max":0,"o":"m 354 797 l 186 1003 l 394 1003 l 481 797 m 408 -17 b 53 353 201 -17 53 139 b 408 722 53 567 201 722 b 765 353 615 722 765 567 b 408 -17 765 139 615 -17 m 408 138 b 586 353 514 138 586 225 b 408 569 586 481 514 569 b 232 353 303 569 232 481 b 408 138 232 225 303 138 "},"ő":{"ha":818,"x_min":0,"x_max":0,"o":"m 299 1003 l 453 1003 l 354 797 l 213 797 m 529 1003 l 693 1003 l 585 797 l 443 797 m 408 -17 b 53 353 201 -17 53 139 b 408 722 53 567 201 722 b 765 353 615 722 765 567 b 408 -17 765 139 615 -17 m 408 138 b 586 353 514 138 586 225 b 408 569 586 481 514 569 b 232 353 303 569 232 481 b 408 138 232 225 303 138 "},"ō":{"ha":818,"x_min":0,"x_max":0,"o":"m 217 965 l 603 965 l 603 833 l 217 833 m 408 -17 b 53 353 201 -17 53 139 b 408 722 53 567 201 722 b 765 353 615 722 765 567 b 408 -17 765 139 615 -17 m 408 138 b 586 353 514 138 586 225 b 408 569 586 481 514 569 b 232 353 303 569 232 481 b 408 138 232 225 303 138 "},"ø":{"ha":818,"x_min":0,"x_max":0,"o":"m 606 667 b 765 353 704 603 765 490 b 408 -17 765 139 615 -17 b 331 -8 381 -17 356 -14 l 288 -114 l 169 -67 l 213 39 b 53 353 114 103 53 215 b 408 722 53 567 201 722 b 488 714 436 722 463 719 l 531 819 l 650 776 l 606 667 m 232 353 b 278 200 232 290 249 238 l 428 568 b 408 569 422 569 415 569 b 232 353 303 569 232 481 m 408 138 b 586 353 514 138 586 225 b 540 506 586 415 569 468 l 390 139 b 408 138 396 138 403 138 "},"õ":{"ha":818,"x_min":0,"x_max":0,"o":"m 433 971 b 508 938 465 950 481 938 b 563 1010 538 938 557 961 l 688 990 b 508 810 681 881 610 810 b 392 846 464 810 426 824 b 317 879 361 865 344 879 b 261 808 286 879 267 857 l 138 826 b 314 1007 144 935 214 1007 b 433 971 357 1007 396 993 m 408 -17 b 53 353 201 -17 53 139 b 408 722 53 567 201 722 b 765 353 615 722 765 567 b 408 -17 765 139 615 -17 m 408 138 b 586 353 514 138 586 225 b 408 569 586 481 514 569 b 232 353 303 569 232 481 b 408 138 232 225 303 138 "},"œ":{"ha":1324,"x_min":0,"x_max":0,"o":"m 1268 375 b 1265 306 1268 350 1267 319 l 765 306 b 943 131 782 194 853 131 b 1099 233 1011 131 1065 169 l 1257 167 b 939 -17 1196 50 1082 -17 b 674 99 821 -17 733 29 b 408 -17 610 26 517 -17 b 53 353 201 -17 53 139 b 408 722 53 567 201 722 b 674 608 517 722 610 679 b 928 722 729 676 814 722 b 1268 375 1163 722 1268 543 m 1078 436 b 922 588 1071 522 1018 588 b 769 436 847 588 789 535 m 408 138 b 586 353 514 138 586 225 b 408 569 586 481 514 569 b 232 353 303 569 232 481 b 408 138 232 225 303 138 "},"p":{"ha":826,"x_min":0,"x_max":0,"o":"m 454 722 b 774 353 651 722 774 568 b 454 -17 774 139 651 -17 b 261 60 382 -17 306 14 l 261 -257 l 83 -257 l 83 706 l 261 706 l 261 647 b 454 722 306 692 382 722 m 422 139 b 593 353 525 139 593 225 b 422 567 593 482 525 567 b 261 481 360 567 299 533 l 261 225 b 422 139 299 174 361 139 "},"þ":{"ha":826,"x_min":0,"x_max":0,"o":"m 454 722 b 774 353 651 722 774 568 b 454 -17 774 139 651 -17 b 261 60 382 -17 306 14 l 261 -257 l 83 -257 l 83 972 l 261 972 l 261 647 b 454 722 306 692 382 722 m 422 139 b 593 353 525 139 593 225 b 422 567 593 482 525 567 b 261 481 360 567 299 533 l 261 225 b 422 139 299 174 361 139 "},"q":{"ha":828,"x_min":0,"x_max":0,"o":"m 744 706 l 744 -257 l 565 -257 l 565 60 b 372 -17 522 14 446 -17 b 53 353 176 -17 53 139 b 372 722 53 568 176 722 b 565 647 446 722 522 692 l 565 706 m 404 139 b 565 225 467 139 529 174 l 565 481 b 404 567 529 533 467 567 b 233 353 303 567 233 482 b 404 139 233 225 301 139 "},"r":{"ha":571,"x_min":0,"x_max":0,"o":"m 471 722 b 547 711 496 722 526 718 l 538 539 b 449 554 511 551 478 554 b 261 446 374 554 301 513 l 261 0 l 83 0 l 83 706 l 261 706 l 261 625 b 471 722 310 688 382 722 "},"ŕ":{"ha":571,"x_min":0,"x_max":0,"o":"m 360 797 l 233 797 l 319 1003 l 528 1003 m 471 722 b 547 711 496 722 526 718 l 538 539 b 449 554 511 551 478 554 b 261 446 374 554 301 513 l 261 0 l 83 0 l 83 706 l 261 706 l 261 625 b 471 722 310 688 382 722 "},"ř":{"ha":571,"x_min":0,"x_max":0,"o":"m 235 797 l 78 1003 l 208 1003 l 313 896 l 417 1003 l 547 1003 l 389 797 m 261 625 b 471 722 310 688 382 722 b 547 711 496 722 526 718 l 538 539 b 449 554 511 551 478 554 b 261 446 374 554 301 513 l 261 0 l 83 0 l 83 706 l 261 706 l 261 625 "},"ŗ":{"ha":571,"x_min":0,"x_max":0,"o":"m 471 722 b 547 711 496 722 526 718 l 538 539 b 449 554 511 551 478 554 b 261 446 374 554 301 513 l 261 0 l 83 0 l 83 706 l 261 706 l 261 625 b 471 722 310 688 382 722 m 72 -58 l 267 -58 l 144 -264 l 18 -264 "},"s":{"ha":636,"x_min":0,"x_max":0,"o":"m 322 -17 b 18 194 153 -17 54 86 l 160 250 b 321 121 183 179 233 121 b 432 200 390 121 432 156 b 51 522 432 340 51 256 b 306 722 51 635 150 722 b 578 554 442 722 536 657 l 438 488 b 303 592 421 554 361 592 b 210 526 244 592 210 567 b 594 207 210 397 594 501 b 322 -17 594 81 483 -17 "},"ś":{"ha":636,"x_min":0,"x_max":0,"o":"m 321 1003 l 529 1003 l 361 797 l 235 797 m 322 -17 b 18 194 153 -17 54 86 l 160 250 b 321 121 183 179 233 121 b 432 200 390 121 432 156 b 51 522 432 340 51 256 b 306 722 51 635 150 722 b 578 554 442 722 536 657 l 438 488 b 303 592 421 554 361 592 b 210 526 244 592 210 567 b 594 207 210 397 594 501 b 322 -17 594 81 483 -17 "},"š":{"ha":636,"x_min":0,"x_max":0,"o":"m 79 1003 l 210 1003 l 314 896 l 418 1003 l 549 1003 l 390 797 l 236 797 m 322 -17 b 18 194 153 -17 54 86 l 160 250 b 321 121 183 179 233 121 b 432 200 390 121 432 156 b 51 522 432 340 51 256 b 306 722 51 635 150 722 b 578 554 442 722 536 657 l 438 488 b 303 592 421 554 361 592 b 210 526 244 592 210 567 b 594 207 210 397 594 501 b 322 -17 594 81 483 -17 "},"ş":{"ha":636,"x_min":0,"x_max":0,"o":"m 594 207 b 390 -11 594 99 514 13 l 306 -206 l 97 -206 l 256 -11 b 18 194 126 13 49 101 l 160 250 b 321 121 183 179 233 121 b 432 200 390 121 432 156 b 51 522 432 340 51 256 b 306 722 51 635 150 722 b 578 554 442 722 536 657 l 438 488 b 303 592 421 554 361 592 b 210 526 244 592 210 567 b 594 207 210 397 594 501 "},"ŝ":{"ha":636,"x_min":0,"x_max":0,"o":"m 390 1003 l 549 797 l 418 797 l 314 903 l 210 797 l 79 797 l 236 1003 m 322 -17 b 18 194 153 -17 54 86 l 160 250 b 321 121 183 179 233 121 b 432 200 390 121 432 156 b 51 522 432 340 51 256 b 306 722 51 635 150 722 b 578 554 442 722 536 657 l 438 488 b 303 592 421 554 361 592 b 210 526 244 592 210 567 b 594 207 210 397 594 501 b 322 -17 594 81 483 -17 "},"ș":{"ha":636,"x_min":0,"x_max":0,"o":"m 322 -17 b 18 194 153 -17 54 86 l 160 250 b 321 121 183 179 233 121 b 432 200 390 121 432 156 b 51 522 432 340 51 256 b 306 722 51 635 150 722 b 578 554 442 722 536 657 l 438 488 b 303 592 421 554 361 592 b 210 526 244 592 210 567 b 594 207 210 397 594 501 b 322 -17 594 81 483 -17 m 226 -58 l 421 -58 l 299 -264 l 172 -264 "},"ß":{"ha":869,"x_min":0,"x_max":0,"o":"m 497 -11 b 376 0 456 -11 400 -6 l 376 164 b 479 151 406 156 443 151 b 635 296 575 151 635 207 b 425 440 635 396 558 440 l 376 440 l 376 608 l 422 608 b 574 731 514 608 574 649 b 442 851 574 797 522 851 b 303 696 357 851 303 793 l 303 0 l 110 0 l 110 442 l 32 442 l 32 610 l 110 610 l 110 693 b 442 989 110 889 267 989 b 753 743 632 989 753 885 b 632 553 753 649 701 574 b 825 290 744 515 825 436 b 497 -11 825 86 692 -11 "},"ſ":{"ha":529,"x_min":0,"x_max":0,"o":"m 144 556 l 32 556 l 32 706 l 144 706 l 144 757 b 396 1003 144 924 251 1003 l 481 1003 l 481 856 l 422 856 b 324 757 365 856 324 824 l 324 0 l 144 0 "},"t":{"ha":532,"x_min":0,"x_max":0,"o":"m 171 556 l 28 556 l 28 706 l 171 706 l 171 914 l 350 983 l 350 706 l 504 706 l 504 556 l 350 556 l 350 0 l 171 0 "},"ŧ":{"ha":532,"x_min":0,"x_max":0,"o":"m 350 556 l 350 414 l 486 414 l 486 292 l 350 292 l 350 0 l 171 0 l 171 292 l 47 292 l 47 414 l 171 414 l 171 556 l 28 556 l 28 706 l 171 706 l 171 914 l 350 983 l 350 706 l 504 706 l 504 556 "},"ť":{"ha":597,"x_min":0,"x_max":0,"o":"m 475 1068 l 647 1068 l 535 808 l 432 808 m 171 556 l 28 556 l 28 706 l 171 706 l 171 914 l 350 983 l 350 706 l 504 706 l 504 556 l 350 556 l 350 0 l 171 0 "},"ţ":{"ha":532,"x_min":0,"x_max":0,"o":"m 504 706 l 504 556 l 350 556 l 350 0 l 333 0 l 244 -206 l 36 -206 l 203 0 l 171 0 l 171 556 l 28 556 l 28 706 l 171 706 l 171 914 l 350 983 l 350 706 "},"ț":{"ha":532,"x_min":0,"x_max":0,"o":"m 171 556 l 28 556 l 28 706 l 171 706 l 171 914 l 350 983 l 350 706 l 504 706 l 504 556 l 350 556 l 350 0 l 171 0 m 164 -58 l 358 -58 l 236 -264 l 110 -264 "},"u":{"ha":825,"x_min":0,"x_max":0,"o":"m 413 -17 b 83 271 215 -17 83 99 l 83 706 l 261 706 l 261 290 b 413 138 261 199 322 138 b 564 290 501 138 564 199 l 564 706 l 742 706 l 742 271 b 413 -17 742 99 610 -17 "},"ú":{"ha":825,"x_min":0,"x_max":0,"o":"m 419 1003 l 628 1003 l 460 797 l 333 797 m 413 -17 b 83 271 215 -17 83 99 l 83 706 l 261 706 l 261 290 b 413 138 261 199 322 138 b 564 290 501 138 564 199 l 564 706 l 742 706 l 742 271 b 413 -17 742 99 610 -17 "},"ŭ":{"ha":825,"x_min":0,"x_max":0,"o":"m 411 793 b 218 982 300 793 218 874 l 350 982 b 411 910 350 938 374 910 b 475 982 450 910 475 938 l 606 982 b 411 793 606 874 524 793 m 413 -17 b 83 271 215 -17 83 99 l 83 706 l 261 706 l 261 290 b 413 138 261 199 322 138 b 564 290 501 138 564 199 l 564 706 l 742 706 l 742 271 b 413 -17 742 99 610 -17 "},"û":{"ha":825,"x_min":0,"x_max":0,"o":"m 489 1003 l 647 797 l 517 797 l 413 903 l 308 797 l 178 797 l 335 1003 m 413 -17 b 83 271 215 -17 83 99 l 83 706 l 261 706 l 261 290 b 413 138 261 199 322 138 b 564 290 501 138 564 199 l 564 706 l 742 706 l 742 271 b 413 -17 742 99 610 -17 "},"ü":{"ha":825,"x_min":0,"x_max":0,"o":"m 278 818 b 178 915 218 818 178 860 b 278 1013 178 971 218 1013 b 379 915 338 1013 379 971 b 278 818 379 860 338 818 m 546 818 b 447 915 489 818 447 860 b 546 1013 447 971 489 1013 b 647 915 606 1013 647 971 b 546 818 647 860 606 818 m 413 -17 b 83 271 215 -17 83 99 l 83 706 l 261 706 l 261 290 b 413 138 261 199 322 138 b 564 290 501 138 564 199 l 564 706 l 742 706 l 742 271 b 413 -17 742 99 610 -17 "},"ù":{"ha":825,"x_min":0,"x_max":0,"o":"m 357 797 l 189 1003 l 397 1003 l 483 797 m 413 -17 b 83 271 215 -17 83 99 l 83 706 l 261 706 l 261 290 b 413 138 261 199 322 138 b 564 290 501 138 564 199 l 564 706 l 742 706 l 742 271 b 413 -17 742 99 610 -17 "},"ű":{"ha":825,"x_min":0,"x_max":0,"o":"m 301 1003 l 456 1003 l 357 797 l 215 797 m 532 1003 l 696 1003 l 588 797 l 446 797 m 413 -17 b 83 271 215 -17 83 99 l 83 706 l 261 706 l 261 290 b 413 138 261 199 322 138 b 564 290 501 138 564 199 l 564 706 l 742 706 l 742 271 b 413 -17 742 99 610 -17 "},"ū":{"ha":825,"x_min":0,"x_max":0,"o":"m 219 965 l 606 965 l 606 833 l 219 833 m 413 -17 b 83 271 215 -17 83 99 l 83 706 l 261 706 l 261 290 b 413 138 261 199 322 138 b 564 290 501 138 564 199 l 564 706 l 742 706 l 742 271 b 413 -17 742 99 610 -17 "},"ų":{"ha":825,"x_min":0,"x_max":0,"o":"m 742 706 l 742 271 b 471 -12 742 117 635 7 b 436 -87 453 -33 436 -58 b 493 -142 436 -122 460 -142 b 525 -137 508 -142 519 -139 l 542 -254 b 465 -264 529 -258 497 -264 b 299 -122 365 -264 299 -207 b 342 -11 299 -86 315 -44 b 83 271 185 13 83 119 l 83 706 l 261 706 l 261 290 b 413 138 261 199 322 138 b 564 290 501 138 564 199 l 564 706 "},"ů":{"ha":825,"x_min":0,"x_max":0,"o":"m 411 769 b 249 924 318 769 249 836 b 411 1076 249 1011 318 1076 b 574 924 506 1076 574 1011 b 411 769 574 836 506 769 m 411 860 b 476 924 450 860 476 886 b 411 986 476 960 450 986 b 346 924 374 986 346 960 b 411 860 346 886 374 860 m 413 -17 b 83 271 215 -17 83 99 l 83 706 l 261 706 l 261 290 b 413 138 261 199 322 138 b 564 290 501 138 564 199 l 564 706 l 742 706 l 742 271 b 413 -17 742 99 610 -17 "},"ũ":{"ha":825,"x_min":0,"x_max":0,"o":"m 435 971 b 510 938 467 950 482 938 b 564 1010 539 938 558 961 l 689 990 b 510 810 682 881 611 810 b 393 846 465 810 428 824 b 318 879 363 865 346 879 b 263 808 288 879 268 857 l 139 826 b 315 1007 146 935 215 1007 b 435 971 358 1007 397 993 m 413 -17 b 83 271 215 -17 83 99 l 83 706 l 261 706 l 261 290 b 413 138 261 199 322 138 b 564 290 501 138 564 199 l 564 706 l 742 706 l 742 271 b 413 -17 742 99 610 -17 "},"v":{"ha":717,"x_min":0,"x_max":0,"o":"m 704 706 l 447 0 l 271 0 l 13 706 l 206 706 l 361 199 l 515 706 "},"w":{"ha":1063,"x_min":0,"x_max":0,"o":"m 13 706 l 193 706 l 315 232 l 460 621 l 603 621 l 747 232 l 869 706 l 1050 706 l 832 0 l 674 0 l 532 396 l 389 0 l 231 0 "},"ẃ":{"ha":1063,"x_min":0,"x_max":0,"o":"m 540 1007 l 749 1007 l 581 801 l 454 801 m 13 706 l 193 706 l 315 232 l 460 621 l 603 621 l 747 232 l 869 706 l 1050 706 l 832 0 l 674 0 l 532 396 l 389 0 l 231 0 "},"ŵ":{"ha":1063,"x_min":0,"x_max":0,"o":"m 608 1007 l 767 801 l 636 801 l 532 907 l 428 801 l 297 801 l 454 1007 m 13 706 l 193 706 l 315 232 l 460 621 l 603 621 l 747 232 l 869 706 l 1050 706 l 832 0 l 674 0 l 532 396 l 389 0 l 231 0 "},"ẅ":{"ha":1063,"x_min":0,"x_max":0,"o":"m 397 822 b 297 919 338 822 297 864 b 397 1017 297 975 338 1017 b 499 919 457 1017 499 975 b 397 822 499 864 457 822 m 665 822 b 567 919 608 822 567 864 b 665 1017 567 975 608 1017 b 767 919 725 1017 767 975 b 665 822 767 864 725 822 m 13 706 l 193 706 l 315 232 l 460 621 l 603 621 l 747 232 l 869 706 l 1050 706 l 832 0 l 674 0 l 532 396 l 389 0 l 231 0 "},"ẁ":{"ha":1063,"x_min":0,"x_max":0,"o":"m 476 801 l 308 1007 l 517 1007 l 603 801 m 13 706 l 193 706 l 315 232 l 460 621 l 603 621 l 747 232 l 869 706 l 1050 706 l 832 0 l 674 0 l 532 396 l 389 0 l 231 0 "},"x":{"ha":708,"x_min":0,"x_max":0,"o":"m 496 0 l 354 222 l 211 0 l 13 0 l 258 357 l 24 706 l 218 706 l 351 497 l 488 706 l 681 706 l 447 365 l 696 0 "},"y":{"ha":735,"x_min":0,"x_max":0,"o":"m 721 706 l 353 -247 l 179 -247 l 283 25 l 13 706 l 206 706 l 372 233 l 538 706 "},"ý":{"ha":735,"x_min":0,"x_max":0,"o":"m 414 797 l 288 797 l 374 1003 l 582 1003 m 721 706 l 353 -247 l 179 -247 l 283 25 l 13 706 l 206 706 l 372 233 l 538 706 "},"ŷ":{"ha":735,"x_min":0,"x_max":0,"o":"m 263 797 l 132 797 l 289 1003 l 443 1003 l 601 797 l 471 797 l 367 903 m 721 706 l 353 -247 l 179 -247 l 283 25 l 13 706 l 206 706 l 372 233 l 538 706 "},"ÿ":{"ha":735,"x_min":0,"x_max":0,"o":"m 232 818 b 132 915 172 818 132 860 b 232 1013 132 971 172 1013 b 333 915 292 1013 333 971 b 232 818 333 860 292 818 m 500 818 b 401 915 443 818 401 860 b 500 1013 401 971 443 1013 b 601 915 560 1013 601 971 b 500 818 601 860 560 818 m 721 706 l 353 -247 l 179 -247 l 283 25 l 13 706 l 206 706 l 372 233 l 538 706 "},"ỳ":{"ha":735,"x_min":0,"x_max":0,"o":"m 311 797 l 143 1003 l 351 1003 l 438 797 m 721 706 l 353 -247 l 179 -247 l 283 25 l 13 706 l 206 706 l 372 233 l 538 706 "},"z":{"ha":701,"x_min":0,"x_max":0,"o":"m 46 136 l 422 556 l 71 556 l 71 706 l 640 706 l 640 569 l 268 150 l 650 150 l 650 0 l 46 0 "},"ź":{"ha":701,"x_min":0,"x_max":0,"o":"m 376 1003 l 585 1003 l 417 797 l 290 797 m 46 136 l 422 556 l 71 556 l 71 706 l 640 706 l 640 569 l 268 150 l 650 150 l 650 0 l 46 0 "},"ž":{"ha":701,"x_min":0,"x_max":0,"o":"m 133 1003 l 264 1003 l 368 896 l 472 1003 l 603 1003 l 444 797 l 290 797 m 46 136 l 422 556 l 71 556 l 71 706 l 640 706 l 640 569 l 268 150 l 650 150 l 650 0 l 46 0 "},"ż":{"ha":701,"x_min":0,"x_max":0,"o":"m 368 810 b 257 921 306 810 257 860 b 368 1031 257 982 306 1031 b 481 921 432 1031 481 982 b 368 810 481 860 432 810 m 46 136 l 422 556 l 71 556 l 71 706 l 640 706 l 640 569 l 268 150 l 650 150 l 650 0 l 46 0 "},"ª":{"ha":465,"x_min":0,"x_max":0,"o":"m 221 983 b 418 801 338 983 418 921 l 418 533 l 303 533 l 303 592 b 174 526 279 553 226 526 b 26 658 88 526 26 585 b 221 806 26 744 92 792 l 303 814 l 303 817 b 221 894 303 865 271 894 b 138 819 175 894 142 867 l 33 839 b 221 983 46 926 125 983 m 201 613 b 303 715 264 613 301 658 l 303 719 l 303 722 l 303 729 l 219 719 b 140 661 168 714 140 690 b 201 613 140 635 164 613 "},"º":{"ha":518,"x_min":0,"x_max":0,"o":"m 260 526 b 26 756 124 526 26 622 b 260 983 26 888 124 983 b 492 756 394 983 492 888 b 260 526 492 622 394 526 m 260 628 b 372 756 328 628 372 679 b 260 882 372 829 328 882 b 146 756 192 882 146 829 b 260 628 146 679 192 628 "},"π":{"ha":890,"x_min":0,"x_max":0,"o":"m 796 142 b 822 143 807 142 807 142 l 818 -12 l 774 -14 b 511 246 615 -14 511 86 l 511 558 l 335 558 l 335 0 l 160 0 l 160 558 l 28 558 l 28 706 l 811 706 l 811 558 l 690 558 l 690 271 b 796 142 690 188 726 142 "},"¹":{"ha":324,"x_min":0,"x_max":0,"o":"m 154 921 b 36 867 118 897 81 876 l 36 982 b 176 1056 82 994 135 1025 l 274 1056 l 274 521 l 154 521 "},"²":{"ha":479,"x_min":0,"x_max":0,"o":"m 43 622 l 208 758 b 304 886 268 807 304 847 b 235 950 304 925 276 950 b 165 846 186 950 158 910 l 40 854 b 235 1061 29 969 121 1061 b 433 886 354 1061 433 989 b 300 688 433 818 394 754 l 226 632 l 433 632 l 433 521 l 44 521 "},"³":{"ha":494,"x_min":0,"x_max":0,"o":"m 244 515 b 38 675 131 515 49 578 l 154 694 b 246 626 165 654 201 626 b 325 697 293 626 325 654 b 247 771 325 742 294 771 b 185 750 229 771 203 765 l 135 838 l 263 944 l 53 944 l 54 1056 l 417 1056 l 417 944 l 293 850 b 454 694 389 850 454 792 b 244 515 454 586 371 515 "},"⁄":{"ha":382,"x_min":0,"x_max":0,"o":"m 443 972 l 589 972 l -61 0 l -207 0 "},"½":{"ha":1208,"x_min":0,"x_max":0,"o":"m 154 838 b 36 783 118 814 81 793 l 36 899 b 176 972 82 911 135 942 l 274 972 l 274 438 l 154 438 m 813 972 l 958 972 l 308 0 l 163 0 m 772 101 l 938 238 b 1033 365 997 286 1033 326 b 964 429 1033 404 1006 429 b 894 325 915 429 888 389 l 769 333 b 964 540 758 449 850 540 b 1163 365 1083 540 1163 468 b 1029 167 1163 297 1124 233 l 956 111 l 1163 111 l 1163 0 l 774 0 "},"¼":{"ha":1161,"x_min":0,"x_max":0,"o":"m 154 838 b 36 783 118 814 81 793 l 36 899 b 176 972 82 911 135 942 l 274 972 l 274 438 l 154 438 m 813 972 l 958 972 l 308 0 l 163 0 m 935 96 l 671 96 l 671 208 l 926 535 l 1064 535 l 1064 208 l 1126 208 l 1126 96 l 1064 96 l 1064 0 l 935 0 m 935 208 l 935 376 l 803 208 "},"¾":{"ha":1286,"x_min":0,"x_max":0,"o":"m 244 432 b 38 592 131 432 49 494 l 154 611 b 246 543 165 571 201 543 b 325 614 293 543 325 571 b 247 688 325 658 294 688 b 185 667 229 688 203 682 l 135 754 l 263 861 l 53 861 l 54 972 l 417 972 l 417 861 l 293 767 b 454 611 389 767 454 708 b 244 432 454 503 371 432 m 938 972 l 1083 972 l 433 0 l 288 0 m 1060 96 l 796 96 l 796 208 l 1051 535 l 1189 535 l 1189 208 l 1251 208 l 1251 96 l 1189 96 l 1189 0 l 1060 0 m 1060 208 l 1060 376 l 928 208 "},"⅛":{"ha":1207,"x_min":0,"x_max":0,"o":"m 154 838 b 36 783 118 814 81 793 l 36 899 b 176 972 82 911 135 942 l 274 972 l 274 438 l 154 438 m 813 972 l 958 972 l 308 0 l 163 0 m 964 -6 b 761 160 856 -6 761 56 b 854 288 761 218 799 269 b 786 396 813 308 786 350 b 964 540 786 474 860 540 b 1140 396 1069 540 1140 474 b 1071 288 1140 349 1114 307 b 1164 160 1128 269 1164 218 b 964 -6 1164 56 1074 -6 m 964 336 b 1025 389 1000 336 1025 358 b 964 444 1025 422 1000 444 b 901 389 926 444 901 422 b 964 336 901 358 926 336 m 964 99 b 1038 163 1010 99 1038 124 b 964 226 1038 201 1010 226 b 888 163 918 226 888 201 b 964 99 888 124 918 99 "},"⅜":{"ha":1332,"x_min":0,"x_max":0,"o":"m 244 432 b 38 592 131 432 49 494 l 154 611 b 246 543 165 571 201 543 b 325 614 293 543 325 571 b 247 688 325 658 294 688 b 185 667 229 688 203 682 l 135 754 l 263 861 l 53 861 l 54 972 l 417 972 l 417 861 l 293 767 b 454 611 389 767 454 708 b 244 432 454 503 371 432 m 938 972 l 1083 972 l 433 0 l 288 0 m 1089 -6 b 886 160 981 -6 886 56 b 979 288 886 218 924 269 b 911 396 938 308 911 350 b 1089 540 911 474 985 540 b 1265 396 1194 540 1265 474 b 1196 288 1265 349 1239 307 b 1289 160 1253 269 1289 218 b 1089 -6 1289 56 1199 -6 m 1089 336 b 1150 389 1125 336 1150 358 b 1089 444 1150 422 1125 444 b 1026 389 1051 444 1026 422 b 1089 336 1026 358 1051 336 m 1089 99 b 1163 163 1135 99 1163 124 b 1089 226 1163 201 1135 226 b 1013 163 1043 226 1013 201 b 1089 99 1013 124 1043 99 "},"⅝":{"ha":1324,"x_min":0,"x_max":0,"o":"m 244 432 b 42 581 138 432 60 490 l 158 601 b 239 543 171 565 199 543 b 315 618 285 543 315 574 b 235 693 315 664 283 693 b 149 647 199 693 172 679 l 54 668 l 100 972 l 403 972 l 403 861 l 192 861 l 175 757 b 272 793 199 782 229 793 b 444 618 372 793 444 722 b 244 432 444 506 365 432 m 929 972 l 1075 972 l 425 0 l 279 0 m 1081 -6 b 878 160 972 -6 878 56 b 971 288 878 218 915 269 b 903 396 929 308 903 350 b 1081 540 903 474 976 540 b 1257 396 1186 540 1257 474 b 1188 288 1257 349 1231 307 b 1281 160 1244 269 1281 218 b 1081 -6 1281 56 1190 -6 m 1081 336 b 1142 389 1117 336 1142 358 b 1081 444 1142 422 1117 444 b 1018 389 1043 444 1018 422 b 1081 336 1018 358 1043 336 m 1081 99 b 1154 163 1126 99 1154 124 b 1081 226 1154 201 1126 226 b 1004 163 1035 226 1004 201 b 1081 99 1004 124 1035 99 "},"⅞":{"ha":1203,"x_min":0,"x_max":0,"o":"m 89 438 b 300 861 128 565 189 717 l 33 861 l 33 972 l 428 972 l 428 861 b 214 438 310 697 244 546 l 89 438 m 808 972 l 954 972 l 304 0 l 158 0 m 960 -6 b 757 160 851 -6 757 56 b 850 288 757 218 794 269 b 782 396 808 308 782 350 b 960 540 782 474 856 540 b 1136 396 1065 540 1136 474 b 1067 288 1136 349 1110 307 b 1160 160 1124 269 1160 218 b 960 -6 1160 56 1069 -6 m 960 336 b 1021 389 996 336 1021 358 b 960 444 1021 422 996 444 b 897 389 922 444 897 422 b 960 336 897 358 922 336 m 960 99 b 1033 163 1006 99 1033 124 b 960 226 1033 201 1006 226 b 883 163 914 226 883 201 b 960 99 883 124 914 99 "},".":{"ha":407,"x_min":0,"x_max":0,"o":"m 203 -11 b 92 99 140 -11 92 36 b 203 208 92 161 140 208 b 315 99 267 208 315 161 b 203 -11 315 36 267 -11 "},",":{"ha":386,"x_min":0,"x_max":0,"o":"m 125 190 l 340 190 l 153 -179 l 32 -179 "},":":{"ha":407,"x_min":0,"x_max":0,"o":"m 203 486 b 92 596 140 486 92 532 b 203 706 92 658 140 706 b 315 596 267 706 315 658 b 203 486 315 532 267 486 m 203 -11 b 92 99 140 -11 92 36 b 203 208 92 161 140 208 b 315 99 267 208 315 161 b 203 -11 315 36 267 -11 "},";":{"ha":418,"x_min":0,"x_max":0,"o":"m 231 486 b 119 596 168 486 119 532 b 231 706 119 658 168 706 b 343 596 294 706 343 658 b 231 486 343 532 294 486 m 131 190 l 344 190 l 157 -179 l 36 -179 "},"…":{"ha":1221,"x_min":0,"x_max":0,"o":"m 203 -11 b 92 99 140 -11 92 36 b 203 208 92 161 140 208 b 315 99 267 208 315 161 b 203 -11 315 36 267 -11 m 610 -11 b 499 99 547 -11 499 36 b 610 208 499 161 547 208 b 722 99 674 208 722 161 b 610 -11 722 36 674 -11 m 1017 -11 b 906 99 954 -11 906 36 b 1017 208 906 161 954 208 b 1129 99 1081 208 1129 161 b 1017 -11 1129 36 1081 -11 "},"!":{"ha":417,"x_min":0,"x_max":0,"o":"m 97 972 l 314 972 l 276 328 l 136 328 m 213 -11 b 101 99 150 -11 101 36 b 213 208 101 161 150 208 b 325 99 276 208 325 161 b 213 -11 325 36 276 -11 "},"¡":{"ha":417,"x_min":0,"x_max":0,"o":"m 213 714 b 325 604 276 714 325 667 b 213 494 325 542 276 494 b 101 604 150 494 101 542 b 213 714 101 667 150 714 m 276 375 l 314 -269 l 97 -269 l 136 375 "},"?":{"ha":763,"x_min":0,"x_max":0,"o":"m 257 314 b 517 706 239 557 517 539 b 375 832 517 782 457 832 b 226 669 275 832 218 767 l 57 672 b 375 985 46 863 175 985 b 699 707 567 985 699 876 b 428 314 699 460 422 478 l 257 314 m 357 -11 b 244 99 293 -11 244 36 b 357 208 244 161 293 208 b 468 99 421 208 468 161 b 357 -11 468 36 421 -11 "},"¿":{"ha":771,"x_min":0,"x_max":0,"o":"m 414 700 b 526 590 478 700 526 653 b 414 481 526 528 478 481 b 303 590 350 481 303 528 b 414 700 303 653 350 700 m 514 375 b 254 -17 532 132 254 150 b 396 -143 254 -93 314 -143 b 544 19 496 -143 553 -78 l 714 17 b 396 -296 725 -174 596 -296 b 72 -18 204 -296 72 -187 b 343 375 72 229 349 211 l 514 375 "},"·":{"ha":361,"x_min":0,"x_max":0,"o":"m 188 399 b 76 508 125 399 76 446 b 188 618 76 571 125 618 b 300 508 251 618 300 571 b 188 399 300 446 251 399 "},"•":{"ha":661,"x_min":0,"x_max":0,"o":"m 333 100 b 53 378 176 100 53 224 b 333 656 53 531 176 656 b 608 378 485 656 608 531 b 333 100 608 224 485 100 "},"*":{"ha":685,"x_min":0,"x_max":0,"o":"m 454 649 l 572 494 l 461 411 l 342 574 l 222 411 l 111 494 l 231 649 l 46 703 l 86 836 l 275 776 l 272 972 l 413 972 l 411 776 l 599 836 l 639 703 "},"#":{"ha":965,"x_min":0,"x_max":0,"o":"m 735 569 l 699 403 l 864 403 l 864 269 l 669 269 l 611 0 l 474 0 l 532 269 l 346 269 l 288 0 l 150 0 l 208 269 l 42 269 l 42 403 l 238 403 l 274 569 l 101 569 l 101 703 l 303 703 l 361 972 l 499 972 l 440 703 l 626 703 l 685 972 l 822 972 l 764 703 l 924 703 l 924 569 m 597 569 l 411 569 l 375 403 l 561 403 "},"/":{"ha":653,"x_min":0,"x_max":0,"o":"m 450 972 l 639 972 l 201 -1 l 14 -1 "},"\\":{"ha":653,"x_min":0,"x_max":0,"o":"m 451 -1 l 14 972 l 203 972 l 639 -1 "},"(":{"ha":483,"x_min":0,"x_max":0,"o":"m 315 -254 b 75 425 158 -65 75 167 b 315 1100 75 681 158 914 l 438 1008 b 244 425 308 829 244 635 b 438 -161 244 211 308 19 l 315 -254 "},")":{"ha":483,"x_min":0,"x_max":0,"o":"m 46 -161 b 239 425 175 19 239 211 b 46 1008 239 635 175 829 l 168 1100 b 408 425 325 914 408 681 b 168 -254 408 167 325 -65 "},"{":{"ha":478,"x_min":0,"x_max":0,"o":"m 344 -212 b 165 -28 240 -212 165 -135 l 165 263 b 46 379 165 347 125 379 l 46 533 b 165 650 125 535 165 565 l 165 942 b 344 1125 165 1049 240 1125 l 432 1125 l 432 976 l 403 976 b 328 897 351 976 328 949 l 328 610 b 215 457 328 515 278 481 b 328 303 278 432 328 399 l 328 15 b 403 -64 328 -35 351 -64 l 432 -64 l 432 -212 l 344 -212 "},"}":{"ha":478,"x_min":0,"x_max":0,"o":"m 46 -212 l 46 -64 l 75 -64 b 151 15 126 -64 151 -35 l 151 303 b 263 457 151 399 200 432 b 151 610 200 481 151 515 l 151 897 b 75 976 151 949 126 976 l 46 976 l 46 1125 l 133 1125 b 313 942 238 1125 313 1049 l 313 650 b 432 533 313 565 353 535 l 432 379 b 313 263 353 379 313 347 l 313 -28 b 133 -212 313 -135 238 -212 "},"[":{"ha":456,"x_min":0,"x_max":0,"o":"m 92 1118 l 410 1118 l 410 972 l 253 972 l 253 -76 l 410 -76 l 410 -222 l 92 -222 "},"]":{"ha":456,"x_min":0,"x_max":0,"o":"m 46 -222 l 46 -76 l 203 -76 l 203 972 l 46 972 l 46 1118 l 364 1118 l 364 -222 "},"-":{"ha":529,"x_min":0,"x_max":0,"o":"m 38 479 l 492 479 l 492 325 l 38 325 "},"­":{"ha":529,"x_min":0,"x_max":0,"o":"m 38 479 l 492 479 l 492 325 l 38 325 "},"–":{"ha":694,"x_min":0,"x_max":0,"o":"m 31 479 l 664 479 l 664 325 l 31 325 "},"—":{"ha":1389,"x_min":0,"x_max":0,"o":"m 31 479 l 1358 479 l 1358 325 l 31 325 "},"_":{"ha":694,"x_min":0,"x_max":0,"o":"m 31 -1 l 664 -1 l 664 -157 l 31 -157 "},"‚":{"ha":371,"x_min":0,"x_max":0,"o":"m 119 190 l 325 190 l 149 -162 l 32 -162 "},"„":{"ha":643,"x_min":0,"x_max":0,"o":"m 119 190 l 325 190 l 149 -162 l 32 -162 m 392 190 l 597 190 l 422 -162 l 304 -162 "},"“":{"ha":643,"x_min":0,"x_max":0,"o":"m 251 631 l 46 631 l 222 983 l 339 983 m 524 631 l 318 631 l 494 983 l 613 983 "},"”":{"ha":633,"x_min":0,"x_max":0,"o":"m 119 983 l 325 983 l 149 631 l 32 631 m 392 983 l 597 983 l 422 631 l 304 631 "},"‘":{"ha":371,"x_min":0,"x_max":0,"o":"m 251 631 l 46 631 l 222 983 l 339 983 "},"’":{"ha":361,"x_min":0,"x_max":0,"o":"m 119 983 l 325 983 l 149 631 l 32 631 "},"«":{"ha":831,"x_min":0,"x_max":0,"o":"m 376 626 l 176 425 l 376 224 l 286 132 l 46 375 l 46 476 l 276 718 m 747 626 l 549 425 l 747 224 l 658 132 l 418 375 l 418 476 l 649 718 "},"»":{"ha":831,"x_min":0,"x_max":0,"o":"m 414 476 l 414 375 l 174 132 l 83 224 l 283 425 l 83 626 l 183 718 m 785 476 l 785 375 l 544 132 l 454 224 l 654 425 l 454 626 l 554 718 "},"‹":{"ha":460,"x_min":0,"x_max":0,"o":"m 376 626 l 176 425 l 376 224 l 286 132 l 46 375 l 46 476 l 276 718 "},"›":{"ha":460,"x_min":0,"x_max":0,"o":"m 414 476 l 414 375 l 174 132 l 83 224 l 283 425 l 83 626 l 183 718 "},"\"":{"ha":564,"x_min":0,"x_max":0,"o":"m 46 983 l 239 983 l 197 631 l 88 631 m 318 983 l 511 983 l 471 631 l 360 631 "},"'":{"ha":285,"x_min":0,"x_max":0,"o":"m 46 983 l 239 983 l 197 631 l 88 631 "}," ":{"ha":332,"x_min":0,"x_max":0,"o":""}," ":{"ha":332,"x_min":0,"x_max":0,"o":""},"\r":{"ha":332,"x_min":0,"x_max":0,"o":""},"¢":{"ha":781,"x_min":0,"x_max":0,"o":"m 404 136 b 549 260 481 136 535 183 l 721 225 b 476 -10 700 97 608 13 l 476 -147 l 322 -146 l 322 -10 b 53 353 160 24 53 163 b 322 715 53 543 160 682 l 322 846 l 476 846 l 476 715 b 722 474 611 692 703 604 l 550 440 b 404 568 539 515 481 568 b 235 353 303 568 235 483 b 404 136 235 222 303 136 "},"¤":{"ha":885,"x_min":0,"x_max":0,"o":"m 769 506 b 722 328 769 439 753 378 l 844 207 l 738 101 l 617 224 b 442 178 567 194 507 178 b 268 224 376 178 317 194 l 147 101 l 42 207 l 163 328 b 115 506 132 378 115 439 b 156 674 115 568 129 625 l 36 794 l 142 900 l 258 783 b 442 833 310 815 372 833 b 625 782 511 833 574 815 l 743 900 l 849 794 l 728 672 b 769 506 754 625 769 568 m 442 307 b 631 506 554 307 631 388 b 442 706 631 625 554 706 b 253 506 326 706 253 625 b 442 307 253 388 326 307 "},"$":{"ha":794,"x_min":0,"x_max":0,"o":"m 753 276 b 488 -8 753 128 650 21 l 488 -136 l 335 -135 l 335 -12 b 24 293 172 11 51 133 l 193 344 b 401 150 217 228 296 150 b 558 271 496 150 558 199 b 56 719 558 479 56 361 b 335 986 56 861 174 967 l 335 1101 l 488 1101 l 488 978 b 733 767 606 951 693 874 l 568 676 b 389 822 536 765 483 822 b 249 719 300 822 249 783 b 753 276 249 544 753 674 "},"€":{"ha":1104,"x_min":0,"x_max":0,"o":"m 635 150 b 869 338 758 150 844 225 l 1065 294 b 635 -17 1017 104 858 -17 b 179 313 429 -17 244 96 l 47 313 l 47 432 l 158 432 b 156 486 157 450 156 468 b 158 542 156 506 157 524 l 47 542 l 47 660 l 179 660 b 635 989 244 876 432 989 b 1067 658 869 989 1035 856 l 875 618 b 635 824 850 742 758 824 b 382 660 524 824 429 769 l 746 660 l 710 542 l 353 542 b 350 486 351 524 350 506 b 353 432 350 467 351 449 l 671 432 l 636 313 l 382 313 b 635 150 429 203 524 150 "},"ƒ":{"ha":672,"x_min":0,"x_max":0,"o":"m 456 706 l 631 706 l 631 565 l 435 565 l 386 240 b 136 -15 363 74 276 -15 b 29 1 99 -15 63 -10 l 42 149 b 111 135 65 139 90 135 b 211 244 168 135 200 171 l 258 565 l 126 565 l 126 706 l 278 706 l 285 751 b 535 1006 310 917 394 1006 b 642 988 572 1006 610 1000 l 629 842 b 560 857 606 851 582 857 b 461 746 504 857 471 819 "},"£":{"ha":838,"x_min":0,"x_max":0,"o":"m 814 175 b 578 0 756 61 681 0 l 94 0 l 94 157 b 206 390 169 225 206 299 b 203 417 206 399 204 408 l 42 417 l 42 564 l 146 564 b 115 696 129 604 115 649 b 436 989 115 872 240 989 b 751 761 604 989 728 900 l 575 713 b 436 824 560 783 510 824 b 303 688 356 824 303 771 b 338 564 303 640 318 601 l 639 564 l 639 417 l 394 417 b 396 389 396 408 396 399 b 301 167 396 303 351 217 l 529 167 b 653 264 583 167 625 208 "},"¥":{"ha":878,"x_min":0,"x_max":0,"o":"m 604 529 l 785 529 l 785 407 l 535 407 l 535 303 l 785 303 l 785 179 l 535 179 l 535 0 l 342 0 l 342 179 l 86 179 l 86 303 l 342 303 l 342 407 l 86 407 l 86 529 l 272 529 l 10 972 l 215 972 l 439 590 l 663 972 l 868 972 "},"+":{"ha":776,"x_min":0,"x_max":0,"o":"m 731 374 l 465 374 l 465 108 l 311 108 l 311 374 l 46 374 l 46 528 l 311 528 l 311 793 l 465 793 l 465 528 l 731 528 "},"−":{"ha":767,"x_min":0,"x_max":0,"o":"m 46 528 l 721 528 l 721 374 l 46 374 "},"×":{"ha":790,"x_min":0,"x_max":0,"o":"m 521 451 l 735 238 l 610 113 l 396 326 l 181 113 l 56 238 l 271 451 l 57 665 l 181 790 l 396 576 l 610 790 l 735 665 "},"÷":{"ha":767,"x_min":0,"x_max":0,"o":"m 383 638 b 272 749 321 638 272 685 b 383 857 272 811 321 857 b 496 749 447 857 496 811 b 383 638 496 685 447 638 m 46 528 l 721 528 l 721 374 l 46 374 m 383 38 b 272 147 321 38 272 83 b 383 257 272 210 321 257 b 496 147 447 257 496 210 b 383 38 496 83 447 38 "},"=":{"ha":767,"x_min":0,"x_max":0,"o":"m 46 681 l 721 681 l 721 525 l 46 525 m 46 374 l 721 374 l 721 219 l 46 219 "},"≠":{"ha":767,"x_min":0,"x_max":0,"o":"m 513 525 l 428 374 l 721 374 l 721 219 l 342 219 l 226 13 l 107 75 l 188 219 l 46 219 l 46 374 l 274 374 l 357 525 l 46 525 l 46 681 l 443 681 l 540 854 l 661 793 l 599 681 l 721 681 l 721 525 "},">":{"ha":769,"x_min":0,"x_max":0,"o":"m 46 228 l 488 403 l 46 579 l 46 763 l 724 476 l 724 331 l 46 44 "},"<":{"ha":769,"x_min":0,"x_max":0,"o":"m 46 331 l 46 476 l 724 763 l 724 579 l 282 403 l 724 228 l 724 44 "},"≥":{"ha":789,"x_min":0,"x_max":0,"o":"m 65 374 l 507 542 l 65 708 l 65 883 l 743 611 l 743 472 l 65 200 m 67 154 l 742 154 l 742 0 l 67 0 "},"≤":{"ha":789,"x_min":0,"x_max":0,"o":"m 46 471 l 46 610 l 724 881 l 724 707 l 282 540 l 724 374 l 724 199 m 49 0 l 49 154 l 724 154 l 724 0 "},"±":{"ha":776,"x_min":0,"x_max":0,"o":"m 731 511 l 465 511 l 465 246 l 311 246 l 311 511 l 46 511 l 46 665 l 311 665 l 311 931 l 465 931 l 465 665 l 731 665 m 46 0 l 46 154 l 721 154 l 721 0 "},"≈":{"ha":826,"x_min":0,"x_max":0,"o":"m 46 518 b 281 753 54 658 149 753 b 438 703 339 753 389 735 b 546 654 479 675 504 654 b 629 751 589 654 619 686 l 779 729 b 546 494 771 589 678 494 b 389 544 488 494 438 513 b 281 593 347 572 322 593 b 196 496 236 593 207 561 l 46 518 m 46 199 b 281 435 54 340 149 435 b 438 383 339 435 389 417 b 546 335 479 356 504 335 b 629 433 589 335 619 368 l 779 411 b 546 175 771 269 678 175 b 389 226 488 175 438 194 b 281 275 347 254 322 275 b 196 176 236 275 207 243 l 46 199 "},"~":{"ha":826,"x_min":0,"x_max":0,"o":"m 46 353 b 281 589 54 494 149 589 b 438 538 339 589 389 569 b 546 489 479 510 504 489 b 629 588 589 489 619 522 l 779 565 b 546 329 771 424 678 329 b 389 381 488 329 438 349 b 281 429 347 408 322 429 b 196 331 236 429 207 396 l 46 353 "},"¬":{"ha":811,"x_min":0,"x_max":0,"o":"m 569 415 l 56 415 l 56 571 l 747 571 l 747 182 l 569 182 "},"^":{"ha":819,"x_min":0,"x_max":0,"o":"m 333 972 l 486 972 l 768 571 l 590 571 l 410 819 l 229 571 l 51 571 "},"∞":{"ha":1404,"x_min":0,"x_max":0,"o":"m 988 808 b 1313 499 1179 808 1313 681 b 988 189 1313 317 1179 189 b 703 342 879 189 782 243 b 417 189 622 243 524 189 b 92 499 226 189 92 317 b 417 808 92 681 226 808 b 703 656 524 808 622 754 b 988 808 782 754 879 808 m 417 361 b 607 499 483 361 553 408 b 417 636 553 589 483 636 b 269 499 319 636 269 585 b 417 361 269 413 319 361 m 988 361 b 1135 499 1083 361 1135 413 b 988 636 1135 585 1083 636 b 799 499 921 636 853 589 b 988 361 853 408 921 361 "},"∫":{"ha":628,"x_min":0,"x_max":0,"o":"m 142 -264 b 96 -261 128 -264 104 -262 l 92 -106 b 121 -107 100 -107 104 -107 b 225 21 189 -107 225 -60 l 225 722 b 486 983 225 881 326 983 b 532 981 499 983 532 981 l 535 825 b 507 826 524 826 517 826 b 403 699 438 826 403 779 l 403 -3 b 142 -264 403 -161 300 -264 "},"Ω":{"ha":1107,"x_min":0,"x_max":0,"o":"m 1015 532 b 819 167 1015 374 938 244 l 1006 167 l 1006 0 l 653 0 l 653 222 b 821 522 754 289 821 407 b 554 822 821 701 713 822 b 288 522 396 822 288 701 b 456 222 288 406 354 289 l 456 0 l 101 0 l 101 167 l 290 167 b 92 532 169 246 92 374 b 556 989 92 794 289 989 b 1015 532 821 989 1015 794 "},"∆":{"ha":1111,"x_min":0,"x_max":0,"o":"m 1019 0 l 92 0 l 464 972 l 647 972 m 763 163 l 556 721 l 350 163 "},"∏":{"ha":946,"x_min":0,"x_max":0,"o":"m 92 972 l 854 972 l 854 0 l 658 0 l 658 806 l 289 806 l 289 0 l 92 0 "},"∑":{"ha":838,"x_min":0,"x_max":0,"o":"m 92 157 l 392 486 l 92 815 l 92 972 l 746 972 l 746 806 l 329 806 l 565 560 l 565 413 l 328 167 l 746 167 l 746 0 l 92 0 "},"√":{"ha":960,"x_min":0,"x_max":0,"o":"m 247 385 l 92 385 l 92 551 l 363 551 l 467 236 l 690 972 l 868 972 l 551 0 l 379 0 "},"µ":{"ha":843,"x_min":0,"x_max":0,"o":"m 751 706 l 751 0 l 574 0 l 574 64 b 385 -17 531 14 465 -17 b 269 8 342 -17 304 -8 l 269 -264 l 92 -264 l 92 706 l 271 706 l 271 282 b 407 138 271 194 322 138 b 574 228 472 138 533 168 l 574 706 "},"∂":{"ha":929,"x_min":0,"x_max":0,"o":"m 319 982 b 376 983 340 983 363 983 b 838 443 621 983 838 807 b 460 -11 838 174 686 -11 b 92 319 240 -11 92 131 b 419 656 92 525 235 656 b 656 540 528 656 613 611 b 372 817 643 703 533 817 b 317 814 353 817 335 815 l 319 982 m 457 156 b 636 332 561 156 636 232 b 457 508 636 436 563 508 b 279 332 354 508 279 436 b 457 156 281 228 354 156 "},"%":{"ha":1111,"x_min":0,"x_max":0,"o":"m 274 983 b 500 739 411 983 500 885 b 274 494 500 593 411 494 b 46 739 136 494 46 593 b 274 983 46 885 136 983 m 792 972 l 939 972 l 289 0 l 142 0 m 274 861 b 183 739 217 861 183 815 b 274 617 183 663 217 617 b 364 739 329 617 364 663 b 274 861 364 815 329 861 m 839 478 b 1065 233 976 478 1065 379 b 839 -11 1065 88 976 -11 b 611 233 701 -11 611 88 b 839 478 611 379 701 478 m 839 356 b 749 233 783 356 749 310 b 839 111 749 157 783 111 b 929 233 896 111 929 157 b 839 356 929 310 896 356 "},"‰":{"ha":1446,"x_min":0,"x_max":0,"o":"m 500 739 b 274 494 500 593 411 494 b 46 739 136 494 46 593 b 274 983 46 885 136 983 b 500 739 411 983 500 885 m 939 972 l 289 0 l 142 0 l 792 972 m 183 739 b 274 617 183 663 217 617 b 364 739 329 617 364 663 b 274 861 364 815 329 861 b 183 739 217 861 183 815 m 1174 478 b 1400 233 1310 478 1400 379 b 1174 -11 1400 88 1310 -11 b 1006 58 1104 -11 1046 14 b 839 -11 967 14 908 -11 b 611 233 701 -11 611 88 b 839 478 611 379 701 478 b 1006 408 908 478 967 453 b 1174 478 1046 453 1104 478 m 839 111 b 929 233 896 111 929 157 b 839 356 929 310 896 356 b 749 233 783 356 749 310 b 839 111 749 157 783 111 m 1174 111 b 1263 233 1229 111 1263 157 b 1174 356 1263 310 1229 356 b 1082 233 1117 356 1082 310 b 1174 111 1082 157 1117 111 "},"↑":{"ha":893,"x_min":0,"x_max":0,"o":"m 757 394 l 524 626 l 524 -15 l 369 -15 l 369 625 l 138 393 l 42 489 l 447 894 l 851 490 "},"↗":{"ha":782,"x_min":0,"x_max":0,"o":"m 739 681 l 739 108 l 604 108 l 604 438 l 150 -17 l 42 92 l 494 544 l 165 544 l 165 681 "},"→":{"ha":993,"x_min":0,"x_max":0,"o":"m 951 368 l 547 -36 l 451 60 l 683 292 l 42 292 l 42 446 l 682 446 l 450 678 l 546 774 "},"↘":{"ha":781,"x_min":0,"x_max":0,"o":"m 739 572 l 739 -1 l 167 -1 l 167 133 l 494 135 l 42 588 l 150 697 l 604 242 l 604 572 "},"↓":{"ha":893,"x_min":0,"x_max":0,"o":"m 851 404 l 446 -1 l 42 403 l 138 499 l 369 267 l 369 908 l 524 908 l 524 268 l 756 500 "},"↙":{"ha":781,"x_min":0,"x_max":0,"o":"m 286 135 l 614 133 l 614 -1 l 42 -1 l 42 572 l 178 572 l 178 243 l 631 697 l 739 588 "},"←":{"ha":993,"x_min":0,"x_max":0,"o":"m 951 292 l 310 292 l 542 60 l 446 -36 l 42 368 l 447 774 l 543 678 l 311 446 l 951 446 "},"↖":{"ha":782,"x_min":0,"x_max":0,"o":"m 632 -17 l 178 436 l 178 108 l 42 108 l 43 681 l 617 681 l 615 544 l 288 544 l 740 92 "},"↔":{"ha":1460,"x_min":0,"x_max":0,"o":"m 1418 368 l 1014 -36 l 918 60 l 1150 292 l 310 292 l 542 60 l 446 -36 l 42 368 l 447 774 l 543 678 l 311 446 l 1149 446 l 917 678 l 1013 774 "},"↕":{"ha":893,"x_min":0,"x_max":0,"o":"m 756 254 l 851 160 l 446 -246 l 42 158 l 138 253 l 369 21 l 369 863 l 138 631 l 42 726 l 446 1131 l 851 725 l 756 629 l 524 861 l 524 22 "},"●":{"ha":1110,"x_min":0,"x_max":0,"o":"m 557 -15 b 53 486 267 -15 53 199 b 557 988 53 774 267 988 b 1057 486 843 988 1057 774 b 557 -15 1057 199 843 -15 "},"○":{"ha":1108,"x_min":0,"x_max":0,"o":"m 554 -15 b 53 486 265 -15 53 199 b 554 988 53 774 265 988 b 1056 486 842 988 1056 774 b 554 -15 1056 199 842 -15 m 554 82 b 956 486 785 82 956 254 b 554 890 956 718 785 890 b 154 486 324 890 154 718 b 554 82 154 254 324 82 "},"◊":{"ha":882,"x_min":0,"x_max":0,"o":"m 92 486 l 360 972 l 522 972 l 790 486 l 522 0 l 360 0 m 621 486 l 440 821 l 260 486 l 440 151 "},"":{"ha":1182,"x_min":0,"x_max":0,"o":"m 901 364 b 1090 175 1003 364 1090 278 b 901 -12 1090 72 1004 -12 b 711 175 797 -12 711 72 l 711 294 l 469 294 l 469 175 b 279 -12 469 72 383 -12 b 92 175 176 -12 92 71 b 279 364 92 279 178 364 l 399 364 l 399 607 l 279 607 b 92 796 178 607 92 692 b 279 985 92 900 178 985 b 469 796 382 985 469 899 l 469 676 l 711 676 l 711 796 b 901 985 711 899 799 985 b 1090 796 1004 985 1090 900 b 901 607 1090 693 1003 607 l 782 607 l 782 364 l 901 364 m 399 676 l 399 796 b 279 915 399 861 346 915 b 163 796 214 915 163 861 b 279 676 163 731 214 676 m 782 676 l 901 676 b 1019 796 967 676 1019 731 b 901 915 1019 861 965 915 b 782 796 835 915 782 861 m 711 364 l 711 607 l 469 607 l 469 364 m 399 294 l 279 294 b 163 175 214 294 163 240 b 279 57 163 110 214 57 b 399 175 346 57 399 110 m 901 57 b 1019 175 967 57 1019 110 b 901 294 1019 240 967 294 l 782 294 l 782 175 b 901 57 782 110 835 57 "},"@":{"ha":1272,"x_min":0,"x_max":0,"o":"m 903 656 l 903 315 b 968 238 903 269 932 238 b 1074 444 1031 238 1074 315 b 656 817 1074 672 897 817 b 200 383 389 817 200 636 b 654 -62 200 118 383 -62 b 1046 43 790 -62 906 -32 l 1058 -107 b 657 -204 938 -172 804 -204 b 53 383 300 -204 53 42 b 656 957 53 713 310 957 b 1219 444 979 957 1219 739 b 958 99 1219 229 1114 99 b 792 188 881 99 821 129 b 611 103 760 136 694 103 b 350 383 454 103 350 211 b 607 664 350 551 454 664 b 761 604 672 665 728 640 l 761 656 m 631 543 b 489 383 546 543 489 481 b 631 224 489 286 546 224 b 761 311 699 224 740 260 l 761 456 b 631 543 740 508 693 543 "},"&":{"ha":940,"x_min":0,"x_max":0,"o":"m 697 0 l 621 86 b 364 -15 547 26 463 -15 b 46 278 172 -15 46 94 b 219 542 46 411 128 488 b 143 731 163 615 143 667 b 418 988 143 879 260 988 b 706 763 574 988 679 879 l 542 718 b 413 835 531 767 488 835 b 307 735 356 835 307 794 b 404 579 307 682 356 633 l 624 331 l 751 472 l 885 360 l 739 201 l 917 0 m 376 151 b 510 213 422 151 465 175 l 328 417 b 231 285 272 381 231 342 b 376 151 231 204 288 151 "},"¶":{"ha":963,"x_min":0,"x_max":0,"o":"m 357 357 b 38 665 181 357 38 494 b 357 972 38 835 181 972 l 917 972 l 917 818 l 826 818 l 826 -253 l 669 -253 l 669 818 l 513 818 l 513 -253 l 357 -253 "},"§":{"ha":810,"x_min":0,"x_max":0,"o":"m 676 182 b 753 4 722 144 753 89 b 411 -264 753 -157 613 -264 b 49 40 228 -264 76 -147 l 224 50 b 411 -108 235 -39 307 -108 b 581 4 513 -108 581 -64 b 97 392 581 181 97 90 b 179 550 97 460 131 510 b 97 735 131 590 97 647 b 407 988 97 881 229 988 b 739 731 569 988 719 899 l 575 721 b 407 835 563 783 499 835 b 263 736 322 835 263 794 b 753 350 263 546 753 651 b 676 182 753 281 724 225 m 263 408 b 539 251 263 306 407 294 b 581 332 565 274 581 301 b 306 485 581 428 436 440 b 263 408 279 464 263 438 "},"©":{"ha":1108,"x_min":0,"x_max":0,"o":"m 554 -15 b 53 486 265 -15 53 199 b 554 988 53 774 265 988 b 1056 486 842 988 1056 774 b 554 -15 1056 199 842 -15 m 554 82 b 956 486 785 82 956 254 b 554 890 956 718 785 890 b 154 486 324 890 154 718 b 554 82 154 254 324 82 m 553 760 b 792 575 682 760 776 688 l 675 551 b 553 657 665 617 618 657 b 407 492 464 657 407 592 b 553 326 407 390 463 326 b 672 424 617 326 663 363 l 790 399 b 553 224 765 290 676 224 b 289 492 396 224 289 331 b 553 760 289 651 397 760 "},"®":{"ha":1108,"x_min":0,"x_max":0,"o":"m 554 -15 b 53 486 265 -15 53 199 b 554 988 53 774 265 988 b 1056 486 842 988 1056 774 b 554 -15 1056 199 842 -15 m 554 82 b 956 486 785 82 956 254 b 554 890 956 718 785 890 b 154 486 324 890 154 718 b 554 82 154 254 324 82 m 663 244 l 542 451 l 467 451 l 467 244 l 361 244 l 361 758 l 560 758 b 728 604 661 758 728 697 b 649 474 728 547 699 499 l 785 244 m 467 544 l 544 544 b 621 604 594 544 621 567 b 544 665 621 644 594 665 l 467 665 "},"℗":{"ha":1108,"x_min":0,"x_max":0,"o":"m 554 -15 b 53 486 265 -15 53 199 b 554 988 53 774 265 988 b 1056 486 842 988 1056 774 b 554 -15 1056 199 842 -15 m 554 82 b 956 486 785 82 956 254 b 554 890 956 718 785 890 b 154 486 324 890 154 718 b 554 82 154 254 324 82 m 494 439 l 494 244 l 389 244 l 389 758 l 582 758 b 756 597 683 758 756 693 b 582 439 756 503 683 439 m 494 531 l 574 531 b 650 597 621 531 650 557 b 574 665 650 640 621 665 l 494 665 "},"™":{"ha":1103,"x_min":0,"x_max":0,"o":"m 186 872 l 46 872 l 46 972 l 446 972 l 446 872 l 304 872 l 304 486 l 186 486 m 515 972 l 639 972 l 753 710 l 871 972 l 992 972 l 1057 486 l 944 486 l 901 797 l 797 556 l 711 556 l 606 797 l 563 486 l 451 486 "},"°":{"ha":492,"x_min":0,"x_max":0,"o":"m 244 606 b 49 797 133 606 49 689 b 244 990 49 907 133 990 b 443 797 358 990 443 907 b 244 606 443 689 358 606 m 244 715 b 325 797 292 715 325 750 b 244 879 325 846 292 879 b 167 797 199 879 167 846 b 244 715 167 750 199 715 "},"|":{"ha":376,"x_min":0,"x_max":0,"o":"m 92 1042 l 285 1042 l 285 -69 l 92 -69 "},"¦":{"ha":376,"x_min":0,"x_max":0,"o":"m 92 1042 l 285 1042 l 285 557 l 92 557 m 92 415 l 285 415 l 285 -69 l 92 -69 "},"†":{"ha":599,"x_min":0,"x_max":0,"o":"m 218 647 l 46 647 l 46 778 l 218 778 l 218 972 l 382 972 l 382 778 l 553 778 l 553 647 l 382 647 l 382 265 l 218 265 "},"‡":{"ha":599,"x_min":0,"x_max":0,"o":"m 382 647 l 382 325 l 553 325 l 553 194 l 382 194 l 382 0 l 218 0 l 218 194 l 46 194 l 46 325 l 218 325 l 218 647 l 46 647 l 46 778 l 218 778 l 218 972 l 382 972 l 382 778 l 553 778 l 553 647 "},"№":{"ha":1760,"x_min":0,"x_max":0,"o":"m 1311 251 b 956 621 1104 251 956 407 b 1311 992 956 835 1104 992 b 1668 621 1518 992 1668 835 b 1311 251 1668 407 1518 251 m 92 972 l 286 972 l 699 299 l 699 972 l 878 972 l 878 0 l 685 0 l 271 672 l 271 0 l 92 0 m 1311 406 b 1489 621 1417 406 1489 493 b 1311 838 1489 749 1417 838 b 1135 621 1206 838 1135 749 b 1311 406 1135 493 1206 406 m 988 154 l 1622 154 l 1622 0 l 988 0 "},"̈":{"ha":0,"x_min":0,"x_max":0,"o":"m -439 818 b -539 915 -499 818 -539 860 b -439 1013 -539 971 -499 1013 b -337 915 -379 1013 -337 971 b -439 818 -337 860 -379 818 m -171 818 b -269 915 -228 818 -269 860 b -171 1013 -269 971 -228 1013 b -69 915 -111 1013 -69 971 b -171 818 -69 860 -111 818 "},"̇":{"ha":0,"x_min":0,"x_max":0,"o":"m -182 810 b -293 921 -244 810 -293 860 b -182 1031 -293 982 -244 1031 b -69 921 -118 1031 -69 982 b -182 810 -69 860 -118 810 "},"̀":{"ha":0,"x_min":0,"x_max":0,"o":"m -196 797 l -364 1003 l -156 1003 l -69 797 "},"́":{"ha":0,"x_min":0,"x_max":0,"o":"m -278 1003 l -69 1003 l -237 797 l -364 797 "},"̋":{"ha":0,"x_min":0,"x_max":0,"o":"m -464 1003 l -310 1003 l -408 797 l -550 797 m -233 1003 l -69 1003 l -178 797 l -319 797 "},"̂":{"ha":0,"x_min":0,"x_max":0,"o":"m -228 1003 l -69 797 l -200 797 l -304 903 l -408 797 l -539 797 l -382 1003 "},"̌":{"ha":0,"x_min":0,"x_max":0,"o":"m -539 1003 l -408 1003 l -304 896 l -200 1003 l -69 1003 l -228 797 l -382 797 "},"̆":{"ha":0,"x_min":0,"x_max":0,"o":"m -264 793 b -457 982 -375 793 -457 874 l -325 982 b -264 910 -325 938 -301 910 b -200 982 -225 910 -200 938 l -69 982 b -264 793 -69 874 -151 793 "},"̊":{"ha":0,"x_min":0,"x_max":0,"o":"m -232 769 b -394 924 -325 769 -394 836 b -232 1076 -394 1011 -325 1076 b -69 924 -137 1076 -69 1011 b -232 769 -69 836 -137 769 m -232 860 b -167 924 -193 860 -167 886 b -232 986 -167 960 -193 986 b -297 924 -269 986 -297 960 b -232 860 -297 886 -269 860 "},"̃":{"ha":0,"x_min":0,"x_max":0,"o":"m -324 971 b -249 938 -292 950 -276 938 b -194 1010 -219 938 -200 961 l -69 990 b -249 810 -76 881 -147 810 b -365 846 -293 810 -331 824 b -440 879 -396 865 -412 879 b -496 808 -471 879 -490 857 l -619 826 b -443 1007 -612 935 -543 1007 b -324 971 -400 1007 -361 993 "},"̄":{"ha":0,"x_min":0,"x_max":0,"o":"m -456 965 l -69 965 l -69 833 l -456 833 "},"̒":{"ha":0,"x_min":0,"x_max":0,"o":"m -106 797 l -294 797 l -207 1003 l -69 1003 "},"̦":{"ha":0,"x_min":0,"x_max":0,"o":"m -264 -58 l -69 -58 l -192 -264 l -318 -264 "},"̧":{"ha":0,"x_min":0,"x_max":0,"o":"m -158 -206 l -367 -206 l -164 44 l -69 0 "},"̨":{"ha":0,"x_min":0,"x_max":0,"o":"m -143 -264 b -310 -122 -243 -264 -310 -207 b -244 13 -310 -76 -283 -24 l -125 0 b -172 -87 -147 -22 -172 -51 b -115 -142 -172 -122 -149 -142 b -83 -137 -100 -142 -89 -139 l -67 -254 b -143 -264 -79 -258 -111 -264 "},"´":{"ha":582,"x_min":0,"x_max":0,"o":"m 156 1003 l 364 1003 l 196 797 l 69 797 "},"˘":{"ha":526,"x_min":0,"x_max":0,"o":"m 263 793 b 69 982 151 793 69 874 l 201 982 b 263 910 201 938 225 910 b 326 982 301 910 326 938 l 457 982 b 263 793 457 874 375 793 "},"ˇ":{"ha":608,"x_min":0,"x_max":0,"o":"m 69 1003 l 200 1003 l 304 896 l 408 1003 l 539 1003 l 381 797 l 226 797 "},"¸":{"ha":436,"x_min":0,"x_max":0,"o":"m 278 -206 l 69 -206 l 272 44 l 367 0 "},"ˆ":{"ha":608,"x_min":0,"x_max":0,"o":"m 381 1003 l 539 797 l 408 797 l 304 903 l 200 797 l 69 797 l 226 1003 "},"¨":{"ha":608,"x_min":0,"x_max":0,"o":"m 169 818 b 69 915 110 818 69 860 b 169 1013 69 971 110 1013 b 271 915 229 1013 271 971 b 169 818 271 860 229 818 m 438 818 b 339 915 381 818 339 860 b 438 1013 339 971 381 1013 b 539 915 497 1013 539 971 b 438 818 539 860 497 818 "},"˙":{"ha":363,"x_min":0,"x_max":0,"o":"m 181 810 b 69 921 118 810 69 860 b 181 1031 69 982 118 1031 b 293 921 244 1031 293 982 b 181 810 293 860 244 810 "},"`":{"ha":433,"x_min":0,"x_max":0,"o":"m 238 797 l 69 1003 l 278 1003 l 364 797 "},"˝":{"ha":619,"x_min":0,"x_max":0,"o":"m 156 1003 l 310 1003 l 211 797 l 69 797 m 386 1003 l 550 1003 l 442 797 l 300 797 "},"¯":{"ha":525,"x_min":0,"x_max":0,"o":"m 69 965 l 456 965 l 456 833 l 69 833 "},"˛":{"ha":388,"x_min":0,"x_max":0,"o":"m 242 -264 b 75 -122 142 -264 75 -207 b 140 13 75 -76 101 -24 l 260 0 b 213 -87 238 -22 213 -51 b 269 -142 213 -122 236 -142 b 301 -137 285 -142 296 -139 l 318 -254 b 242 -264 306 -258 274 -264 "},"˚":{"ha":464,"x_min":0,"x_max":0,"o":"m 232 769 b 69 924 139 769 69 836 b 232 1076 69 1011 139 1076 b 394 924 326 1076 394 1011 b 232 769 394 836 326 769 m 232 860 b 297 924 271 860 297 886 b 232 986 297 960 271 986 b 167 924 194 986 167 960 b 232 860 167 886 194 860 "},"˜":{"ha":689,"x_min":0,"x_max":0,"o":"m 365 971 b 440 938 397 950 413 938 b 494 1010 469 938 489 961 l 619 990 b 440 810 613 881 542 810 b 324 846 396 810 358 824 b 249 879 293 865 276 879 b 193 808 218 879 199 857 l 69 826 b 246 1007 76 935 146 1007 b 365 971 289 1007 328 993 "}}}
